<?xml version="1.0" encoding="utf-8"?>
<!-- Generator: Adobe Illustrator 23.0.1, SVG Export Plug-In . SVG Version: 6.00 Build 0)  -->
<svg version="1.1" id="Layer_1" xmlns="http://www.w3.org/2000/svg" xmlns:xlink="http://www.w3.org/1999/xlink" x="0px" y="0px"
	 viewBox="0 0 326.59 222.06" style="enable-background:new 0 0 326.59 222.06;" xml:space="preserve">
<style type="text/css">
	.st0{fill:#ffffff;}
</style>
<g>
	<path class="st0" d="M272.67,92.3c-0.01,0.01-0.02,0.03-0.04,0.04C272.63,92.5,272.65,92.43,272.67,92.3z"/>
	<path class="st0" d="M5.73,217.01c-0.22-0.12-0.4-0.22-0.58-0.34C5.16,216.82,5.54,216.91,5.73,217.01z"/>
	<path class="st0" d="M12.06,212.82c0.13-0.07,0.25-0.11,0.38-0.17C12.28,212.59,12.14,212.61,12.06,212.82z"/>
	<path class="st0" d="M46.78,220.82c0.71,0.11,1.54,0.96,2.16,0.01c0.53,0.33-0.27,1.37,0.74,1.23c0.59-1.17-1.14-2.22-2.78-2.3
		c-0.05-0.04-0.08-0.08-0.12-0.12C46.95,220.03,47.02,220.42,46.78,220.82z"/>
	<path class="st0" d="M46.78,219.63c-0.06-0.13-0.12-0.26-0.2-0.4C46.56,219.34,46.63,219.48,46.78,219.63z"/>
	<path class="st0" d="M45.8,221.63c0.51-0.27,0.81-0.54,0.97-0.81C46.4,220.76,46.06,220.9,45.8,221.63z"/>
	<path class="st0" d="M144.25,191.36c-0.11,0.02-0.21,0.04-0.32,0.05C143.87,191.81,144.02,191.67,144.25,191.36z"/>
	<path class="st0" d="M80.32,208.26c-0.34,0.15-0.56,0.33-0.7,0.54C79.78,208.76,80,208.61,80.32,208.26z"/>
	<path class="st0" d="M95.41,199.5c-0.03,0.09-0.06,0.2-0.09,0.34L95.41,199.5z"/>
	<path class="st0" d="M98.44,150.05c0,0.03,0.01,0.06,0.01,0.09c0.17,0.15,0.36,0.29,0.57,0.41
		C98.95,150.3,98.78,150.22,98.44,150.05z"/>
	<path class="st0" d="M117.54,123.54c0.08,0.03,0.17,0.05,0.26,0.06c-0.1-0.26-0.21-0.52-0.33-0.8L117.54,123.54z"/>
	<path class="st0" d="M115.21,183.56c0.05,0.02,0.1,0.03,0.15,0.05c-0.01-0.02-0.03-0.03-0.04-0.05
		C115.29,183.57,115.25,183.57,115.21,183.56z"/>
	<path class="st0" d="M5.52,209.8c-0.45,0.77-0.11,1.97-0.27,2.87C6.79,211.8,5.56,210.87,5.52,209.8z"/>
	<path class="st0" d="M44.77,219.87c-0.15,0.42,0.02,0.8-0.47,1c0.51,0.34,0.81-0.51,1.3-0.7C45.44,220.06,44.77,219.6,44.77,219.87
		z"/>
	<path class="st0" d="M52.01,219.9c1.3-0.47,3.29-1.83,3.18-2.62l-1.57,1.34L52.01,219.9z"/>
	<path class="st0" d="M65.67,216.47c-0.08,0.44-0.35,0.78-0.12,1.12C66.65,217.12,66.72,216.7,65.67,216.47z"/>
	<path class="st0" d="M67.22,214.6c0.09,0.04,0.19,0.07,0.28,0.11C67.44,214.59,67.34,214.57,67.22,214.6z"/>
	<path class="st0" d="M65.63,214.6c0.21,1.02,1.09,0.11,1.58,0C66.75,214.42,66.26,214.3,65.63,214.6z"/>
	<path class="st0" d="M85.79,206.04c0.25,1.14,1.12-1.23,1.88-1.07C86.81,204.56,86.21,205.72,85.79,206.04z"/>
	<path class="st0" d="M94.15,198.8c-0.18,0.4-0.37,0.37-0.66,0.52l0.79,0.56C94.65,199.52,94.82,198.69,94.15,198.8z"/>
	<polygon class="st0" points="82.85,150.36 82.04,150.46 82.76,151.42 	"/>
	<path class="st0" d="M149.9,192.28c1.34-0.06-0.1,1.11,0.92,1.08C150.64,193.21,151.03,191.75,149.9,192.28z"/>
	<polygon class="st0" points="325.53,78.73 326.27,78.54 326.59,78.25 	"/>
	<path class="st0" d="M326.01,78.2c1.39-1.25-3.42,1.58-2.49,0.74c-0.15,0.14-0.43,0.3-0.59,0.44c-0.14-0.18-0.25-0.37-0.38-0.55
		c0.73-0.32-0.14,0.64,1.14-0.23c0.45-0.57-0.58-0.04-1.14,0.23c-0.54-0.82-0.95-1.7-1.22-2.65c-0.16-0.54-0.26-1.11-0.35-1.7
		c0.33,0.24,0.58,0.53,0.78,0.85c0.58,0.88,0.75,2.03,1.09,3.06c0.77-0.39,0.66-0.67,1.52-0.97c0.56-1.14-2.44,0.08-1.44-1.27
		l0.75-0.37c0.22-0.66-1.83,1.03-1.16,0.07c0.5-0.52,0.93-0.52,0.93-0.62c-0.76-0.58-0.68-1.73-2.58-1.6
		c-0.01-0.06-0.01-0.13-0.02-0.2c0.95-0.88-0.63-0.79,0.59-1.88c-0.33,0.07-0.51,0.04-0.7,0.04c-0.01-0.15-0.01-0.31-0.02-0.46
		c-0.67-0.85-1.66-1.91-1.65-3.06c-2.08-3.65-1.46-8.76-4.04-12.23c-0.3,0.41-0.98,0.5-1.25,0.39l0.31-0.23l-0.9,0.09
		c-0.21-0.26,0.84-0.65,1.08-0.46c-0.66-1.58-1.59-2.82-1.97-4.5c-1.27,0.52-0.39-0.78-1.71-0.18c0.21-0.19,0.3-0.15,0.57-0.24
		c-1.08-0.75-1.18-0.8,0.05-2.59c-0.55-4.75-3.01-8.37-4.13-12.76c-0.89-2.06-2.06-3.97-3.25-5.89l-0.9-1.44l-0.45-0.72l-0.22-0.36
		l-0.11-0.18L302,26.4c-0.9-1.97-1.75-3.89-2.55-5.84c-1.37,0.4-1.9,0.08-2.43-0.4c-0.52-0.44-1.02-0.96-2.18-0.41l0.69-0.75
		c-1.36,0.11-0.32-1.55-0.1-4.34c-0.72,1.13-0.4-0.26-1.5,1.87c-0.59,0.59-0.25-0.3,0.13-1.38c0.38-1.07,0.78-2.34,0.39-2.28
		c0.37-0.74-0.67,1.29-0.37,0.46c-1.02,0.3-0.83,0.13-0.37-0.77c0.46-0.9,1.22-2.39,1.25-5.05c-0.36-0.69-0.74-1.26-1.14-1.85
		l-1.18-1.68c-0.76-1.05-1.45-2.26-1.98-3.96c-0.19,0.09-0.37,0.15-0.54,0.19c-0.27,0.19-0.53,0.31-0.78,0.38
		c0.08,0.14-0.32,2.22-0.57,2.49c0.41-2.48,0.09-1.88-0.3-0.91c-0.4,0.98-0.85,2.32-0.9,1.55c0.21-1.06,0.49-1.6,0.7-2.18
		c-0.44-0.43-1.09,0.42-1.7,1.2c-0.6,0.77-1.15,1.47-1.65,1.09c-0.62,1.42-1.13,1.58-1.66,1.71c-0.61,0.13-1.23,0.2-1.63,1.73
		c0.17-1.78-0.54-0.66-0.84-1.17c-0.35,2.74-0.88,2.84-1.54,2.88c-0.33,0.01-0.69,0.01-0.99,0.23c-0.28,0.2-0.52,0.64-0.63,1.55
		L277.52,10c-1.4,1.61-2.91,2.97-4.41,4.54c-1.49,1.56-2.95,3.32-3.96,5.34c-0.17,0.23-0.39,0.45-0.6,0.61
		c-0.15,0.08-0.32,0.14-0.5,0.18c-0.37,0.08-0.79,0.1-1.19,0.15c-0.81,0.1-1.53,0.32-1.63,1.32c0.06,0.49,0.62,0.87,0.64,1.22
		c-0.31,0.18-0.57-0.73-0.9-0.92c0.24,1.41-1.32,0.9-1.93,1.52c0.21,0.44,0.12,0.71,0.6,1.2c-1.91-0.9-1.3,2.04-2.92,1.55
		c1.76,1.74,0.37,1.45,0.45,2.13c-0.21,0.04-0.62-0.45-0.85-0.87c-0.38,0.72-0.63,1.03-1.71,1.06c-0.14,0.49,0.54,1.6-0.05,1.62
		c-1.2-1.12-0.83,0.6-1.56,0.42c0.92,1.05,1.09,2.34,0.36,2.15l-1.03-1.67c-0.22,0.99-1.09,1.39-1.89,1.93
		c-0.8,0.55-1.53,1.23-1.59,2.71l-0.72-0.81c-0.77,2.15-2.9,2.23-3.26,4.92c-0.69-0.17-1.5-0.01-1.89,0.27
		c-0.06,1.1-0.3,1.16,0.07,2.56c-0.15,0.22-0.7-0.36-0.96-0.6c-0.81,0.26-2.17-0.44-1.9,1.23l-0.45-0.68
		c-0.09,1.08-0.37,2.44-1.44,2.08c0.2,0.72-0.28,1.36,0.48,1.96c-0.16,0.3-0.85-1.04-0.66-0.16l-0.36-1.13
		c-1.53,0.66-2.4,1.91-3.47,3.25c-1.03-0.87-1.24,0.91-2.36,0.76c-0.13,0.87-1.37,0.51-1,2.03l-0.36-0.61
		c-0.66,0.27-1.49,0.74-2.45,0.91c-0.52,0.1-0.16,0.88-0.29,1.39c-0.03-0.01-0.06-0.01-0.09-0.01l-0.27-0.48
		c-0.05,0.13-0.06,0.28-0.06,0.44c-0.2-0.01-0.39,0.02-0.56,0.07c-0.03-0.16-0.05-0.31-0.09-0.48c-0.62,0.02-0.39,1.8-1.16,1.05
		c-0.55,0.01-0.77,0.42-0.43,1.21c-0.03-0.3-0.5-0.31-0.42-0.78c-0.31,0.18-0.48,0.35-0.53,0.76c0.06-0.03,0.19,0.02,0.25-0.04
		c0.12,0.66-0.22,0.79,0.26,1.63c0.05-0.25,0.03-0.39,0.16-0.45c0.04,0.15,0.08,0.29,0.11,0.43c-0.08,0.35-0.42,0.49-0.71,0.14
		c-0.44-0.54-0.08-1.18-0.51-1.43c-0.06,0.54-0.13,1.07-0.2,1.6c-0.53-0.38-0.31,1.63-1.67-1.45c0.21-0.09-1.01-1.44-0.9-2.51
		c-0.16-0.18-0.37-0.15-0.45,0.14c-0.05,0.28,0.02,0.81,0.4,1.68c0.68,1.89,1.03,3.63,2.06,4.89l-0.46-1.39
		c0.71,1.29,0.4,0.62,0.88,1.61c0.66-0.08,1.6,1.84,2.39,2.45c-0.02-0.04-0.04-0.07-0.07-0.14c-0.42-1.73,0.4-0.96,0.74-0.84
		l0.43,0.7c0.87,1.48-0.74-3.33,0.32-0.6c0.88-1.21,2.22-1.83,3.48-2.52c-0.32-1.07,1.03-0.41-0.24-2.17c1.43,2,2.67,2.04,2.98,1.77
		c0.09,0.21,0.2,0.45,0.1,0.39c2.18,2.42-0.58-3,1.9,0.05c-1.21-2.45,1.57,0.12,0.37-2.89c0.37,0.49,0.67,0.95,0.87,1.39
		c1.17-0.57,2.91-0.43,3.92-0.89c-0.08-0.48-0.03-0.79,0.08-0.99l0.84,0.84c0.72-0.15-0.56-1.32,0.32-1.24l0.25,0.59l0.2-0.54
		c-0.06-0.11-0.14-0.23-0.22-0.35c0.21-0.17,0.31-0.48,0.21-1.08c0.35,0.41,0.74,0.75,0.73,1.19c0.73,0.29,0.1-0.71,0.15-1.11
		c-0.11-0.02-0.25-0.3-0.39-0.6c0.4,0.1,0.81,0.17,1.17,0.11c0.18,0.13,0.34,0.17,0.43,0.03c-0.04-0.05-0.06-0.1-0.09-0.14
		c0.27-0.15,0.46-0.42,0.49-0.93l0.14,0.39c0.13-0.12,0.26-0.24,0.4-0.37c0.48,0.3,0.93,0.57,1.22,0.83
		c0.09-0.64-0.73-0.93-0.47-1.4c0.19,0.61,0.73,0.92,0.91,0.81c-0.47-0.15-0.75-0.88-0.84-1.4c0.06-0.15,0.1-0.3,0.14-0.47
		c0.41,0.01,1.12,0.66,1.21,0.9l0.21,1.08c-0.21-0.9,0.37,0.33,0.45-0.14c-0.29-0.62-0.68-1.6-1.07-2.39
		c0.01-0.03,0.02-0.04,0.03-0.06c0.29,0.31,0.52,0.51,0.71,0.65l0.01,0.36c0.34-0.51,1.13,1.55,1.38,0.87l-0.34-0.77
		c0.07,0.03,0.15,0.08,0.24,0.13c0.12,0.14,0.22,0.33,0.28,0.52c-0.3-0.62,0.07-0.66,0.05-0.94l0.38,0.52
		c-0.02-0.47-0.54-1.83,0.41-0.89c-1.05-1.19-0.29,0.09-0.99-0.26c0.19-0.51,0.55-0.91,0.84-1.41c0.34,0.28,0.58,0.43,0.82,0.64
		l-0.52-1c1.3,1.78,0.22-0.7,0.88-0.3c0.23,0.65,0.74,1.37,1.12,1.53c-0.84-0.86-0.84-1.48-1.02-2.08c0.13-0.01,0.34,0.15,0.72,0.69
		c0.21,0.44,0.43,0.9,0.74,1.25c-0.46-1.21,1.03,0.37,0.28-1.11c-0.63-0.2-0.55-0.86-0.84-1.49c0.01-0.03,0.01-0.06,0.02-0.09
		c0.46-0.09,0.31,0.67,0.94,0.97c0.06-0.27-0.3-1.23-0.77-1.62c0.11-0.33,0.23-0.64,0.39-0.91c0.04,0.03,0.08,0.04,0.13,0.08
		c0.72,0.81-0.28,0.74,0.32,1.26c0.37-0.16,0.01-0.82-0.35-1.51c0.15-0.24,0.32-0.46,0.51-0.66c0.21,0.68,0.41,1.33,0.98,1.82
		l-0.08-0.69c0.24,0.47,0.69,1.32,1.1,1.67c-0.67-1.12,0.48-0.66,0.36-0.94c-0.57-0.94-0.05,0.4-0.5-0.34
		c0.13-0.42-0.79-2.03,0.07-1.73c0.19,0.79,0.97,1.2,1.23,1.78c0.49,0.25-0.69-1.13-0.01-0.81l0.35,0.57
		c1.03-0.44,2.14-1.17,2.24-2.89c0.4,0.03,0.81,0.07,1.23,0.13l0.05,0.15c-0.1-0.35-0.27-0.8-0.47-1.29
		c0.4,0.15,0.82,0.17,1.44,0.34c-0.5-0.16-0.73-0.98-0.68-1.2l1.1,0.94c0.82,0.43,0.5-0.91,0.34-1.75c0.22,0.18,0.46,0.47,0.69,0.76
		c0.85,0.54-0.15-0.84-0.22-1.16l0.79,0.67l-0.54-0.81c-0.03-0.65,0.51-0.73,1.42,0.58c-0.06-0.32-0.13-0.64-0.56-0.91
		c0.86,0.55,1.7,0,1.91-0.8c-0.24-0.07-0.42-0.21-0.62-0.4c0.1-0.08,0.19-0.17,0.28-0.26c1.96,1.15,1.92-0.87,3.08-1.13
		c0.01-0.34-0.22-0.54-0.43-0.97c1.68,1.03,1.19-0.96,2.29-0.77c-0.36-0.3-0.91-1.06-1.23-1.69c0.14-0.2,0.28-0.4,0.42-0.6
		c0.54,0.62,1.27,1.48,1.71,1.71c-0.27-0.67-0.08-1.04,0.11-1.06l0.15,0.21c-0.3-0.78-0.28-1.37,0.4-0.99l0.03,0.11
		c0.28-0.03,1.12,0.56,1.25,0.31c-0.81-1.19,0.25-0.85-0.45-1.94c0.13,0.11,0.16,0.22,0.41,0.42l-0.76-0.96l0.85,0.25
		c0.22,0.44,0.54,0.87,0.64,1.21c0.97,0.36-0.55-1-0.82-1.65c-0.37-0.85,0.38,0.12,0.76,0.48c0.31,0.55-0.29-0.14-0.2,0.08
		c0.52,0.85,0.34,0.24,0.76,0.8c0.06,0.02-0.83-1.21-0.53-1.07c0.18,0.03,0.21-0.5,0.91,0.69c-0.31-0.68-0.13-0.63-0.38-1.22
		c-0.21-0.15-0.55-0.32-1.03-1.03c-0.01-0.22,0-0.69,0.32-0.2l0.1,0.36c-0.1-0.33,0.28-0.23-0.23-0.98c0,0,0,0,0,0
		c0.29,0.39,0.58,0.78,0.86,1.19c-0.22-0.53-0.26-0.8-0.24-1l0.07,0.15l0-0.42c0.02-0.05,0.03-0.11,0.04-0.17
		c0.44,1.01,0.89,2.12,1.22,2.66c-0.82,2.5-1.76,4.92-2.73,7.34c-1.13,2.83-2.43,5.59-3.76,8.35c-0.67,1.38-1.36,2.76-2.08,4.15
		c-0.74,1.37-1.52,2.73-2.31,4.11c-0.34,4.16-0.79,9.56-2.83,12.87c-1.89,7.58-5.47,14.53-9.32,20.99
		c-3.92,6.45-7.97,12.45-11.18,19.33c1.14-0.18,1.71,1.23,1.56,2.09l-0.7-0.25l0.65,1.94c-0.52,1.05-1.94-0.59-1.63-1.54
		c-0.87,1.24-1.63,2.51-2.46,3.72c-0.85,1.2-1.69,2.39-2.52,3.57c-1.61,2.4-3.58,4.59-5.69,6.75c0.76,0.96,0.28,1.6-0.21,2.2
		c-0.5,0.6-0.97,1.19-0.14,2.13c-0.54-0.11-0.43-0.38-0.67-0.85c-1.02,2-1.57,3.08-2.47,3.74c-0.9,0.66-2.13,0.93-4.61,1.23
		c-6.61,5.34-12.54,10.81-18.71,15.87c-6.15,5.01-12.45,9.76-19.36,13.06c-3.35,1.96-6.73,3.73-10.18,5.31
		c-3.45,1.58-6.95,3-10.58,4.09c-7.23,2.2-14.93,3.26-22.98,2.7c-1.43,1.46-2.99,1.64-4.61,1.77c-1.62,0.09-3.29,0.13-5.11,1.08
		l0.41-0.88c-1.44,0.39-2.25,0.15-3.04-0.45c-0.8-0.59-1.59-1.49-3.03-2.5c-0.34,1.03-1.32-0.06-1.37,1.77
		c-1.59,1.13-1.28-3.02-3.12-2.72c0.13-0.58-0.3,1.02-0.46,0.38c-4.33,0.56-0.07-0.39-2.41-3.02c0.46-0.6,0.99-1.12,0.9-1.33
		c-0.88-0.88-0.28,1.16-0.97,0.46c0.48-1.46-0.91-3.01,0.85-4.56c0.14,1.5,1.68,0.38,2.03,1.16c0.96-0.78-1.1-0.99,0.23-2.11
		l0.56,0.49c0.18-0.33,0.37-0.67,0.56-1.01l0.28-0.52l0.07-0.13c0.01-0.01-0.03,0.06-0.04,0.09l-0.13,0.24l0.07-0.13
		c0.39-0.69,0.78-1.41,1.16-2.13c0.39-0.72,0.74-1.48,1.04-2.26c0.31-0.77,0.61-1.55,0.86-2.34c0.93-3.2,1.3-6.49,0.47-9.32
		c1.43-0.59,2.02-2.42,3.36-5.28c-0.61,1.26-1.25-0.15-1.29-0.9c0.54-0.4,1.09-0.82,1.61-1.25c0.5-0.85,0.47-1.91,0.23-2.94
		c-0.28-1.04-0.78-2.05-1.15-2.87c0.29-0.28,0.68-0.37,1.05-0.45c0.91-1.61-0.82-1.65-1.15-2.23c0.32-0.35,0.66-0.71,0.96-1.08
		l-0.99-0.17c-0.34-0.77-0.49-1.66-0.36-2.38c0.1-0.71,0.49-1.24,1.3-1.25c-0.39-0.6-0.77-1.15-1.13-0.3
		c0.17-0.43,0.28-1.02,0.29-1.72c-0.01-0.7-0.1-1.49-0.24-2.32c-0.34-1.65-0.96-3.41-1.71-4.71c0.05,1.45-0.46,1.48-1.38,1.89
		c-1.76,0.14,0.11-0.7-1.2-1.44c0.6-0.23,0.78-1.7,1.67-0.54c0.22-1.1,0.05-2.22-0.24-3.36c-0.38-1.12-0.86-2.26-1.57-3.34
		c-1.32-2.21-3.2-4.24-4.83-6.36c-0.93-0.61-0.91-0.16-1.59-0.21c-0.27-0.9-0.82-1.65-1.45-2.34c-0.69-0.65-1.49-1.22-2.36-1.72
		c-1.78-0.96-3.68-1.69-5.44-2.68c0.3,0.49-0.04,1.11-0.66,1.54c-0.31,0.21-0.69,0.38-1.1,0.47c-0.42,0.1-0.88,0.14-1.36,0.03
		c-1.18,0.46-1.27-0.04-1.36-0.85c-0.08-0.81-0.1-1.9-1.18-2.46c-0.57,0.25-1.36,0.49-2.1,0.61c-0.37,0.06-0.74,0.1-1.06,0.13
		c-0.32,0.05-0.6,0.07-0.81,0.08l0.04-0.26c-1.26,0.88-3.01,1.7-4.62,1.51l0.19-0.17c-0.59,0.14-1.3,0.11-2.02,0.13
		c-0.71-0.02-1.48,0.2-2.07,0.55c0.04,0.76-0.79,1.27-1.51,1.94c-0.74,0.65-1.52,1.27-1.38,2.01c-0.22-0.02-0.1-0.25-0.55-0.25
		l0.67,0.96c-0.72,0.37-1.55,0.72-2.23,1.17c0.01-0.71-0.25-1.16,0.08-1.88c-0.67,0.31-0.98,0.59-1.07,0.82
		c-0.11,0.23-0.02,0.4,0.12,0.58c0.29,0.36,0.8,0.73,0.59,1.44c-0.54,1.85-1.28,1.07-2.22,1.47c-0.03-0.95,0.97-0.9,1.12-1.36
		c-0.01-0.69-0.26-0.55-0.59-0.27c-0.34,0.27-0.65,0.71-0.94,0.52c-0.27,0.3,0.78,1.27-0.2,2.17c-0.73,0.87-1.67,3.28-2.64,2.44
		c0.2,1.16-0.41,2.09-0.14,2.95c0.55-0.71,1.57-2,2.36-1.79c-0.18,0.77-0.52,2.24-1.11,2.26c-0.03-0.23-0.04-0.46-0.05-0.69
		c0.02,0.69-1.1,2.6,0.42,1.96c-0.7,0.28-1.41,0.58-2.12,0.91c0.78,0.88,0.21,2.33,0.16,3.61c-1.31-0.24-2.49-1.67-3.37,0.71
		c0.26,0.79,0.59,1.57,0.92,2.32c-0.06,1.09-0.4,1.33-1.16,1.06c-0.64,1.83,0.21,2.9,0.98,3.8c0.82,0.9,1.6,1.64,0.94,3.03
		c-1.53-1.24-1.76-0.25-2.18,1.06c0.26,0.06,0.79,0.17,0.85,0.71c0.74-0.37-1.11-0.76-0.03-1.75c0.99-0.28,0.66,1.18,0.98,1.76
		c-0.87,0.64-1.36,1.51-1.56,2.51c-0.21,1-0.23,2.14-0.07,3.3c0.12,1.17,0.32,2.38,0.48,3.56c0.07,0.59,0.12,1.18,0.11,1.76
		c0.02,0.58,0,1.15-0.1,1.71c1.87-0.7,0.91,1.71,1.87,2.35c-2.04,0.28,0.9,2.18,0.09,3.61l1.75-1.2c-0.17,1.36,0.85,2.11,1.73,2.72
		c0.89,0.62,1.58,1.13,0.72,2.32c-0.07,1.55-1.55,0.14-2.08-0.31c-0.34,0.67-0.29,1.28-0.04,1.84c0.28,0.56,0.75,1.07,1.2,1.56
		c0.89,1,1.82,1.87,1.09,3.17c0.81-0.25,1.75-1.39,3.19-0.28c-0.11,1.58,0.38,4.55-0.03,4.54c1,0.73,1.72,0.58,1.83,2.06
		c-0.51,0.24-0.88-0.18-1.31-0.37c0.18,0.5,0.42,0.93,0.71,1.3c0.31,0.36,0.66,0.66,1.04,0.93c0.77,0.53,1.59,0.95,2.49,1.34
		c-0.23,0.93,0.42,1.95,1.26,3.01c0.91,1,1.96,2.08,2.6,3.19c0.86-0.25,1.42,0.08,1.88,0.52c-0.16,0.3-0.32,0.6-0.47,0.91
		c-1.78,0.83-4.14,2.55-5.51,3.71c-1.16,2.42-1.96,2.85-2.23,5.21c-0.66,0.69-1.69,0.31-2.24,0.19c-1.35,0.82-2.85,1.38-4.15,2.05
		c-1.31,0.66-2.38,1.5-2.87,3.01l-0.66-0.79c-0.74,1.11-1.69,2.43-2.84,3.54c-1.18,1.07-2.54,1.95-4.04,2.17
		c-0.21,1.17-2.51,2.88-0.8,3.29c-0.88,0.75-1.49-1.17-1.94,0.36l0.2-1.84c-5.72,2.72-10.18,5.65-15.62,8.63
		c-0.58-0.26-1.2-0.26-1.87-0.09c-0.67,0.15-1.39,0.44-2.16,0.78c-0.76,0.33-1.57,0.73-2.41,1.01c-0.85,0.27-1.74,0.46-2.63,0.45
		c-0.82,0.8-2.2,1.04-3.47,1.39c-1.27,0.37-2.43,0.87-2.94,2.14l-0.33-1.05c-1.34,0.17-2.9,0.51-4.58,0.62
		c-0.84,0.08-1.71,0.14-2.58,0.19c-0.88,0.01-1.77-0.03-2.65-0.08c-2.05-0.12-1.93,1.5-3.54,2.13l-0.14-1.12
		c-1.19,0.51-1.79,1.5-2.27,2.43c-0.92-0.06-1.85-0.09-2.78-0.06c1.03-0.66,1.91-1.66,2.58-2.85c-1.07-0.28-2.14,0.29-3.15,0.7
		c-1,0.42-1.91,0.57-2.5-0.36c-0.9-0.31-1.72-0.35-2.35-0.2c-0.56,0.14-0.97,0.51-1.18,1.12c-0.05-0.42-0.94-0.95-0.01-1.38
		c-1.3-0.19-2.17-0.17-3.08,0.25c0.24,0.09,0.55,0.35,0.84,0.34c-0.88,1.06-2.21,0.63-2.31,2.46c0.72-0.26,0.87-0.48,1.53-0.3
		c-0.05,0.02-0.09,0.05-0.14,0.07c-0.88,0.41-1.73,0.81-2.02,0.09l-0.31,0.4c-0.35-0.18-0.63-0.43-0.71-0.77
		c-0.35-1.39,2.07-1.63,1.19-2.63c-1.2,0.6-2.42,1.09-3.69,1.57c-0.38-0.28-0.96-0.41-1.56-0.55c-0.53-0.11-1.05-0.27-1.38-0.56
		c-0.33-0.28-0.49-0.65-0.29-1.23c0.87,0.36-1.01-1.44,1.12-1.11c-0.28-0.28-1.37-0.75-2.23-0.84c-0.11-0.29-0.21-0.76,0.79-0.55
		c-0.37-0.76-0.93-0.42-1.48,0.11c0.2,0.19,0.35,0.32,0.46,0.42c-0.45-0.01-0.8,0.11-0.87,0.45c-0.69,0.88-2.17,1.27-0.84,2.78
		l0.67-0.58c0.25,0.97,0.28,0.55,0.25,1.18c1.11,0.52,1.64,1.08,2.09,1.65c0.45,0.56,0.83,1.09,1.62,1.6
		c-0.01-0.03-0.02-0.05,0.02-0.08c1.47-0.53,2.9,0.54,3.83,0.85l0.27,0.52c0.39,1.05,3.17-1.12,2.1,0.27
		c2.81,0.36,5.84,0.65,8.93,0.79l-0.46,1.1c0.17-0.5,0.43-0.85,0.74-1.09c1.43,0.06,2.88,0.09,4.33,0.08l-0.01,0.02
		c0.95,0.32,1.09,0.22,1.01-0.03c0.37-0.01,0.75-0.03,1.12-0.04c0.16,0.68,0.26,1.47,0.99,1.91c1.27-0.06,2.95-0.66,4.65-1.05
		c1.72-0.34,3.43-0.67,4.95-0.08c1.08-0.34,2.18-0.85,3.22-1.43c0.42-0.23,0.82-0.47,1.22-0.72c0.52-0.13,1.14-0.09,2.03,0.29
		c0.02-0.36,0.31-0.59,0.74-0.77c0.08,0.41,0.13,0.71,0.98,0c-0.04,0.75,0.42,1.41,0.77,2.03c0.09-0.82,3.65-0.87,1.63-2.18
		c1.42-0.23,2.93-0.54,4.42-0.96c1.48-0.46,2.93-1.04,4.29-1.72c-0.9,0.45-0.73,1.75,0.29,2.06c0.46-0.81,1.19-1.64,2.11-2.32
		c0.92-0.69,2.05-1.2,3.28-1.56c-0.07-0.16-0.15-0.29-0.23-0.4c0.66-0.24,1.3-0.49,1.91-0.75c0.44,0.17,0.97,0.18,1.64-0.1
		c0.3,2.18-3.66,1.34-1.88,2.83c-0.24,2.01-4.18,3.66-5.41,3.05c-1.31,2.46,1.59-0.4,1.86,1.39c1.7-0.87,2.21-1.99,4.74-3.46
		c-0.33-0.84-1.27-0.57-0.35-1.77c1.56-2.73,3.44-0.12,4.07-0.34c-0.24,0.36-0.68,0.64-0.94,1c1.8-0.19,1.81-1.56,3.47-2.27
		c1.5,1.92-2.47,1.53-2.44,3.15l1.92,0.96c2.64-1.07-0.15-2.09,2.7-2.86l0.08,0.94l1.35-1.35c-0.39-0.8-1.34-1.8-2.61-0.91
		c-0.16-2.52,1.09-0.96,3.02-2.5c0.06-1.52-0.84,0.59-1.5-0.52c-0.76-0.94,0.68-1.72,1.6-2.5c1.69-0.98,1.56,0.72,2.67,1.07
		c-0.22,0.37-1.46,1.3-1.68,0.56c-1.49,2.39,2.24,1.83,1.2,3.49c2.01-0.3,1.22-1.58,1.82-2.47c-0.54,0.09-0.38-1.29-0.97-1.47
		c1.03-4.66,3.09,1.16,5.47-1.05c-1.65-1.49,1.54-4.61-1.05-5.6c0.39-0.31,0.76-0.63,1.1-0.98L84,200.06
		c0.27-0.18,0.54-0.37,0.82-0.56c0.51,0.28,1.22-0.04,0.94,1.38l0.94-0.62l-0.41,2.45c1.61,0.16,3.96-0.16,4.91,0
		c0.97-1.53-1.25-0.89,0.09-2.32c-0.09,1.04,1.25,0.87,1.94,0.35c-1.73,0.53-1.27-1.72-0.63-2.64c1.32-1.02,3.23-0.74,3.25-0.31
		l-0.43,1.7c0.32-1.03,0.76,0.36,1.43-0.7c-0.22-0.88-0.39-2.38-0.72-3.47c0.62-0.93,1.87-0.59,2.04-0.97
		c-0.25,0.59-0.48,1.21-0.75,1.79c1.53-1.69,1.82,1.49,3.24-0.47l-0.29-1.28c0.47-0.15,0.98,0.1,0.93,0.72
		c-0.26-0.87,0.86-1.58,1.09-2.2l0.62,0.47c0.4-1.04,0.16-3.11,2.05-2.78c-1.93-0.75-0.89,0.77-2.68,1.26
		c-1.66-0.35,0.37-2.05,0.5-2.44c0.62,0.77,1.12,0.39,1.56-0.28c0.43-0.69,0.8-1.66,1.22-2.05c0.97,0.04,1.63-0.14,2.22-0.13
		l-0.59-1.25c2.11,1.49,1.21-2.08,2.68-2.48c0.1,1.03,0.89,1.66,1.81,1.23c-2.24-0.38-0.3-3.1-1.52-3.7
		c0.03-0.02,0.05-0.02,0.07-0.04c0.74,0.1,0.81-0.09,1-0.21c0.52,0.23,0.65,1.15,0.98,1.85c-0.09,0.02-0.17,0.02-0.22-0.04
		c0.69,1.27,1.92,1.2,3.12,1.24c-0.39-0.14-0.47-0.32,0.03-0.53c-0.05,0.22-0.02,0.39,0.08,0.54c0.46,0.02,0.91,0.06,1.32,0.2
		c-0.02,0.03-0.03,0.05-0.05,0.08c-0.48-0.07-0.92-0.14-1.24-0.23c0.22,0.26,0.64,0.42,1.07,0.59c-0.01,0.15,0.13,0.18,0.36,0.15
		c0.34,0.16,0.64,0.36,0.77,0.68l-0.77,1.2c0.76,0.35,3.42-0.38,3.53-0.98c1.48,1.2,3.83,1.95,6.02,2.31
		c1.74,0.27,3.35,0.31,4.37,0.21c-0.48,0.22-0.62,0.63-0.1,0.27c1.16,0,2.64-0.9,2.54,0.03c1.17-0.31,0.77,1.19,2.39,1.68
		c-0.02,0.23,0.29-0.65,0.22-1.07c1.18,1.18,2.8,1.13,4.47,0.98c1.72-0.18,3.47-0.43,5.08,0.39c-0.28,0.08-0.76,0.86-1.08,1.29
		c1.3-0.2,2.56-0.4,3.78-0.72c1.33-0.4,2.61-0.92,3.83-1.8c-0.27,0.66-0.21,1.29-0.84,1.64c1.82,0.05,3.94-0.3,4.74-1.7
		c-1.22-0.67-0.07,0.82-0.9,0.74c-0.65-0.67-0.39-1.33,0.16-1.78c0.55-0.46,1.39-0.75,1.97-0.59l0.04,0.32
		c1.76-0.08,1.79-0.9,3.52-1.06c1.11,0.77-0.88,0.48-0.4,1.39c0.29,1.18,1.34,1.49,2.37,1.53c1.03,0.02,2.02-0.26,2.22-0.14
		c0.37-0.57,0.92-1.03,0.76-1.67c1.29-0.8,0.83,1.33,1.78,1.07c0.92-1.48,1.77-2.92,2.59-4.41c0.18-0.03,0.36-0.06,0.54-0.09
		c0.39,0.65,1.18,1.49,0.44,2.3c1.38-0.45,2.31-1.43,3.03-2.58c0.06-0.1,0.11-0.2,0.17-0.3c0.77-0.12,1.54-0.24,2.32-0.39
		c1.4-0.25,2.81-0.54,4.2-0.91c0.37,0.61,0.9,1.28,0.55,1.9c1.19-1.27,4.92-1.54,7.22-2.05c-2.07-1.7,0.75-2.23,1.27-3.63
		c0.18-0.08,0.36-0.16,0.54-0.24l0.65,1.71l0.28-0.15l-0.89-1.57c0.54-0.24,1.03-0.46,1.33-0.72c0.37,0.54,0.63,1.26,1.2,1.32
		c1.06-1.01,2.2-1.71,3.39-2.27c1.19-0.55,2.37-1.06,3.39-1.8c0,0,0.2,0.29,0.17,0.52c1.56-1.68,4.9-2.89,5.79-5.78
		c0.09-0.06,0.18-0.12,0.27-0.18c0.21,0.37,0.45,0.68,0.23,1.22c1.34-0.28,0.89-1.11,0.61-1.88c0.4-0.33,0.8-0.69,1.2-1.09
		l0.01,0.07l-0.13,0.5c0.06-0.05,0.11-0.1,0.17-0.15l0.09,0.71c0.71-1.87,3.14-1.05,3.85-3.2c0.13-0.04,0.25-0.1,0.37-0.15
		c0.14,0.38,0,0.72,0,1.08c0.52-0.69,1.18-1.26,1.77-1.89c0.77-0.41,1.5-0.88,2.22-1.39c0,0.19-0.02,0.4-0.06,0.61
		c0.91-0.11,1.05-0.71,1.08-1.37c0.76-0.6,1.5-1.25,2.23-1.91c0.24,0.08,0.39,0.19,0.31,0.27c-0.01-0.21,0.03-0.43,0.09-0.65
		c1.02-0.96,2.02-1.95,3.01-2.93c0.51,0.09,1.12,0.02,2.01,0.06c1.73-1.49,3.52-2.93,5.21-4.49l2.55-2.32
		c0.84-0.79,1.64-1.62,2.44-2.45c1.59-1.67,3.15-3.36,4.56-5.18c0.3-0.4,0.59-0.81,0.88-1.23c0.3-0.35,0.59-0.7,0.89-1.05l2.35-2.78
		l0.42-0.48c1.67,0.95-0.74,2.5,1.12,3.08c-0.91-0.82-0.77-1.21-0.23-1.72c0.53-0.51,1.48-1.13,2.07-2.46l0.35,0.16
		c0.39-1.24,2.01-0.68,2.29-2.14l-0.52-0.4c-0.33-2.05,4.43-0.15,2.49-2.75l2.02,0.34c-1.35-2.85,2.04-1.1,1.23-3.87l0.28,0.46
		c1.19-0.48,1.31-1.86,1.41-3.01c0.12-1.15,0.13-2.14,1.3-1.79c0.44-1.04,0.89-2.18,0.88-3.26c0.26-0.37,0.52-0.74,0.78-1.12
		c0.25,0.25,0.47,0.52,0.62,0.74c0.39-0.8,0.84-1.57,1.25-2.38c0.41-0.8,0.83-1.62,1.25-2.43c0.84-1.62,1.75-3.21,2.49-4.87
		c0.41-0.99,0.81-1.97,1.17-2.96c2.02-4.19,3.87-8.46,5.56-12.92c0.08-0.17,0.15-0.34,0.2-0.52c0.02-0.06,0.05-0.12,0.07-0.19
		c-0.01,0.2,0.15,0.34,0.14,0.55c0.02-0.63-0.13-1.39,0.18-1.97c0.2-0.1,0.21,0.29,0.19,0.51c0.99-0.97,1.61-2.75,2.03-4.46
		c0.41-1.72,0.75-3.33,1.42-3.94c0.14-0.71-0.19-1.16-0.65-0.91c0.88-2.73,1.72-5.53,2.5-8.38c4.63-6.59,7.83-14.75,5.31-21.27
		c-0.4-2.11,2.99-0.22,2.91-1.14c-1.18-4.1,0.31-7.97,1.34-11.89c0.53-1.95,0.98-3.9,1.03-5.85c0.02-0.96-0.06-1.93-0.28-2.89
		c0.4-0.07,0.89-0.18,1.59-0.38c-0.51,0.26-0.97,0.56-1.29,0.65c0.13,0.24,0.55,0.36,1.67-0.03c0.43-0.48-0.63,0.31-0.63,0.14
		c0.89-0.76,2.11-0.89,1.96-0.51l-0.24,0.12c0.19,0.34,0.85,0.1,1.05,0.48c-0.54,0.54-0.42-0.06-1.1,0.37
		c-1.79,0.94-0.71,1.43-0.88,1.61c0.44-0.09,0.81-0.09,1.29-0.33c0.63,0.09-0.99,0.63-0.8,0.81l2.97-0.54
		c0.03,0.08,0.06,0.15,0.08,0.24c-0.46,0.29-0.99,0.61-1.46,0.63c0.24,0.24,0.82,0.25,1.5,0.18c-0.06,0.72-0.27,1.51-0.2,2.17
		c-0.14,0.05-0.27,0.1-0.39,0.11c0.77,0.06,0.5,1.19,0.47,1.84c0.96-0.68,1.27-0.57,1.6-0.45l-0.96,0.32
		c0.79-0.21,0.89,0.02,0.98,0.24l-0.55,0.25l0.05,0.06l0.52-0.27c0.06,0.14,0.13,0.26,0.39,0.24c-0.25,0.13-0.47,0.26-0.55,0.38
		c0.99,0.3,0.79,1.13,1.26,1.61c0,0-0.23,0.12-0.36,0.14c0.68,0.24,0.71,1.11,1.91,1.18c0.04,0.06,0.09,0.11,0.14,0.16
		c-0.19,0.09-0.38,0.16-0.57,0.15c-0.16,0.41,0.35,0.21,0.84,0.02c0.17,0.08,0.36,0.14,0.63,0.17l-0.74,0.23c0,0,0,0,0,0l-0.14,0.04
		c0.98,0.02-0.31,1.1,1.08,0.99c-0.01,0.01-0.01,0.02-0.02,0.03c-0.02,0.01-0.05,0.02-0.07,0.03c-0.12,0.02-0.29,0.1-0.49,0.09
		c-0.02,0.02-0.03,0.04-0.04,0.06c-0.08,0.01-0.15,0.02-0.23,0.03c0.06,0.02,0.1,0.05,0.15,0.08c-1.43,1.97,0.55,2.41,1.7,3.21
		c-0.09,0.11-0.18,0.23-0.31,0.38c0.1,0.19,0.19,0.38,0.28,0.57l-0.68,0.24c0.44-0.02,0.73,0.09,0.93,0.25
		c0.16,0.32,0.32,0.64,0.49,0.96c0.13,0.44,0.25,0.89,0.66,1.14c0.01,0.02,0.03,0.04,0.05,0.06l-0.59,0.23l0.77,0.02
		c0.03,0.04,0.06,0.08,0.08,0.12l-0.98,0.5c0.38,0.9,1.38,1.44,2.15,2.11c-0.28-0.04-0.47-0.19-0.97,0.22
		c1.26-0.65,0.54,0.16,1.29,0.57l-0.16,0.11l-0.65,0.29c0.28,0.01,0.51,0.04,0.7,0.1c-0.07,0.18-0.13,0.35,0.15,0.4l0.3-0.17
		c0.09,0.07,0.17,0.15,0.22,0.23c-0.2,0.39-0.97,1.06,0.21,0.6l-0.76,0.68c1.52-0.41-0.09,0.64,1.09,0.48c0,0,0,0.01,0.01,0.01
		l-0.19,0.06c-0.16,0.38,0.29,0.46,0.7,0.52l-0.36,0.1c0.51,1.5,1.55,2.66,2.75,3.73c0.92,0.8,1.92,1.55,2.85,2.36
		c0.11,0.54-0.05,1.2,0.67,1.31c-1.06,1.35,2.13,0.95,1.01,2.01c0.16,0.03,0.5-0.08,0.86-0.25c0.46,0.12,1.13,0.13,1.08,0.49
		l-0.44,0.09c-0.2,1.4-0.2,2.89,0.2,4.1c0.41,1.21,1.23,2.12,2.54,2.42c0.54,0.27-0.89,0.79-0.69,0.93c1.2,0.41,1.49,1.46,1.95,2.39
		c0.45,0.94,1,1.8,2.44,1.91c1.22,0.84,3.55-0.17,3.55-0.17c-0.27-0.27-0.51-0.56-0.73-0.85L326.01,78.2z M279.76,29.01
		c-0.09-0.47-0.17-0.94-0.19-1.24c0.08-0.07,0.14-0.15,0.21-0.23c0,0,0,0,0,0c0.14,0.84,0.25,1.31,0.35,1.61
		c-0.07,0.22-0.14,0.45-0.21,0.67c0,0.01,0,0.01-0.01,0.02C279.87,29.57,279.82,29.29,279.76,29.01z M280.28,28.67
		c-0.01-0.01-0.01,0-0.01,0.03c-0.03,0.11-0.07,0.22-0.1,0.33c-0.31-1.06-0.05-0.84-0.07-1.25c0.09,0.27,0.17,0.49,0.24,0.69
		C280.32,28.53,280.3,28.6,280.28,28.67z M285.84,24.08c0.07-0.16,0.13-0.27,0.16-0.27l-0.12,0.34
		C285.87,24.13,285.85,24.1,285.84,24.08z M287.46,29.13c0.1-0.06,0.14-0.06,0.04,0.09C287.48,29.2,287.47,29.16,287.46,29.13z
		 M240.86,51.31c0.18,0.25,0.38,0.56,0.58,0.85c-0.12,0.11-0.24,0.21-0.37,0.31c-0.09-0.13-0.19-0.29-0.31-0.53
		C240.76,51.75,240.69,51.33,240.86,51.31z M228.59,57.82c-0.07-0.13-0.15-0.24-0.23-0.33l0.04-0.12L228.59,57.82z M228.42,58.63
		c-0.37-0.8-0.61-1.17-0.78-1.32c0.15-0.09,0.43,0.15,0.56,0.6l0.08-0.22C228.44,58.15,228.79,58.92,228.42,58.63z M228.68,58
		c0.08-0.07,0.17-0.12,0.25-0.16l0.28,0.73C229.03,58.84,228.88,58.42,228.68,58z M228.97,57.83c0.07-0.03,0.15-0.05,0.22-0.07
		C229.25,58.09,229.21,58.19,228.97,57.83z M279.43,29.89c0.05-0.17,0.15-0.02,0.33,0.46c-0.04,0.13-0.08,0.26-0.12,0.39
		C279.56,30.45,279.49,30.18,279.43,29.89z M273.57,84.01c-0.31,0.91-0.63,1.83-0.96,2.73c0.01-1.18,0.76-2.61-0.47-3.41
		C272.99,83.26,273.13,83.75,273.57,84.01z M272.16,87.96c-0.27,0.72-0.54,1.43-0.83,2.15c-0.07-0.09-0.13-0.18-0.21-0.28
		l-1.62-1.74C270.33,87.71,271.32,87.96,272.16,87.96z M102.58,160.08c0.84-1.11,0.36-1.39-0.34-1.62
		c-0.69-0.24-1.57-0.48-1.48-1.25c0.51-0.24,0.98,0.09,1.35,0.19c-0.2-0.76-0.55-1.35-0.9-1.94c-0.35-0.59-0.77-1.12-1.19-1.64
		c-0.75-1.08-1.52-2.18-1.57-3.68c-0.43-0.37-0.75-0.81-0.97-1.3c-0.3-0.7-0.47-1.46-0.61-2.19c-0.21-1.51-0.34-2.86-1.29-3.63
		c1.14,0.14,0.38-1.35,0.78-2.03c-1.75-0.59-1.8-1.99-1.63-3.41c0.05-0.71,0.2-1.44,0.17-2.12c-0.04-0.68-0.25-1.32-0.79-1.9
		l0.54,0.05c-0.43-3.62-0.23-7.44,0.39-10.99c0.33-1.77,0.73-3.48,1.21-5.08c0.51-1.56,1.01-3.07,1.6-4.39
		c0.84-1.39,2.39-1.97,3.6-2.06c0.68-0.08,1.36-0.17,2.05-0.25c0.32-0.07,0.6-0.05,0.9-0.19c0.29-0.05,0.58-0.18,0.89-0.34
		c0.48-0.33,0.17-1,0.61-1.22c0.7,0.12-0.14,0.88,0.07,1.23c0.7-0.43,1.52-0.23,2.22,0.36c0.37,0.23,0.69,0.65,1.05,0.95
		c0.17,0.19,0.34,0.38,0.52,0.55c0.19,0.15,0.37,0.33,0.56,0.51c0.48-0.18,1.04,0.12,1.35-0.5c0.25,1.58,1.32,2.56,2.43,3.85
		c1.09,1.27,2.12,2.82,2.03,4.48c1.87-1.88,1.94,1.28,2.7,2.27c0.07,0.66-0.53,0.87-1.03,0.8c0.15,0.36,0.28,0.71,0.37,1.05
		c0.16,0.57,0.35,1.07,0.41,1.62c0.07,0.54,0.12,1.09,0.13,1.71c-0.03,0.63-0.11,1.32-0.23,2.14c0.28,1.32,1.69,1.69,1.23,3.38
		c-0.84,0.49-0.88,1.34-0.87,2.28c0.06,0.94,0.14,2-0.28,2.76c0.73-0.09,1.32,0.42,1.59,1.19c0.24,0.76,0.16,1.76-0.32,2.52
		l-1.86-0.97c0.04,2.7-1.19,5.78-2.66,8.81c-0.39,0.75-0.73,1.53-1.12,2.29c-0.2,0.38-0.39,0.76-0.58,1.15
		c-0.22,0.47-0.43,0.94-0.65,1.4l-0.2,0.41l-0.06,0.15l-0.11,0.3l-0.21,0.6c-0.14,0.4-0.26,0.81-0.37,1.22
		c-0.19,0.83-0.47,1.65-0.6,2.52l-1.25-0.19c-0.26,0.81-0.61,1.57-1,2.32c-0.31,0.59-0.63,1.17-0.97,1.74
		c-1.83-1.24-3.44-2.81-4.59-4.69C103.92,159.55,103.03,160.58,102.58,160.08z M116.57,167.37c0.06-0.1,0.13-0.2,0.19-0.3
		c0.46,0.03,0.76,0.25,0.96,0.59C117.34,167.56,116.95,167.46,116.57,167.37z M22.35,215.84c-0.2-0.1-0.41-0.18-0.61-0.24
		c0.12-0.07,0.24-0.14,0.36-0.22L22.35,215.84z M7.12,214.24c0.24,0.19,0.4,0.47,0.41,0.8c-0.1-0.03-0.21-0.08-0.35-0.17
		C7.23,214.61,7.2,214.41,7.12,214.24z M106.68,180.98c0.02,0.07,0.03,0.14,0.01,0.22C106.69,181.12,106.68,181.05,106.68,180.98z
		 M119.19,184.11c-0.24-0.03-0.54-0.05-0.86-0.08C118.68,183.97,119,183.97,119.19,184.11z M211.8,165.29
		c0.03-0.11,0.06-0.22,0.08-0.34c0.01,0,0.02-0.01,0.04-0.02c0.01,0.01,0.01,0.01,0.01,0.02
		C211.85,165.06,211.89,165.13,211.8,165.29z M267.71,99.62c0.04,0,0.06,0.01,0.1,0.01c-0.03,0.08-0.07,0.16-0.1,0.24
		C267.7,99.79,267.71,99.71,267.71,99.62z M273.99,82.73c-0.16-1.52-1.2-3.41-0.36-4.41l0.75,0.81c0.39-0.43,0.78-0.88,1.16-1.34
		C275.05,79.43,274.54,81.08,273.99,82.73z M288.21,31.05c-0.01,0-0.03,0.01-0.05,0.02c-0.05-0.19-0.11-0.38-0.17-0.57
		C288.27,30.49,288.47,30.59,288.21,31.05z"/>
	<path class="st0" d="M230.1,62.86c-0.09-0.05-0.17-0.1-0.27-0.18C229.96,62.92,230.03,62.83,230.1,62.86z"/>
	<path class="st0" d="M228.2,55.53c0-0.06,0.01-0.1,0.02-0.15C228.19,55.39,228.17,55.43,228.2,55.53z"/>
	<path class="st0" d="M284.87,3.8c0.01,0.01,0.02,0.01,0.03,0.02c0.1-0.24,0.21-0.51,0.32-0.82C285.13,3.02,285.04,3.27,284.87,3.8z
		"/>
	<path class="st0" d="M247.35,54.08c-0.09,0.01-0.12,0.08-0.14,0.17C247.26,54.26,247.31,54.22,247.35,54.08z"/>
	<path class="st0" d="M289.28,0.59c0.01,0,0.03-0.01,0.04-0.01C289.31,0.56,289.3,0.56,289.28,0.59z"/>
	<path class="st0" d="M260.19,27.76c0.03,0.07,0.07,0.14,0.11,0.22c0.04-0.08,0.09-0.17,0.14-0.26L260.19,27.76z"/>
	<path class="st0" d="M226.27,55.85c0.14,0.42,0.53,0.83,0.75,1.24C227.03,56.36,226.57,56.26,226.27,55.85z"/>
	<path class="st0" d="M249.58,53.94c-0.45-0.49-0.45,0.05-0.54,0.15C249.4,54.85,249.22,53.61,249.58,53.94z"/>
	<path class="st0" d="M251,52.05c0.01,0.19-0.08,0.11-0.18,0.11l0.46,0.6C251.37,52.66,251.28,52.22,251,52.05z"/>
</g>
</svg>
