<svg xmlns="http://www.w3.org/2000/svg" width="328" height="284" viewBox="0 0 328 284">
    <defs>
        <linearGradient id="a" x1="49142%" x2="49142%" y1="79941%" y2="44132%">
            <stop offset="0%" stop-color="gray" stop-opacity=".25"/>
            <stop offset="54%" stop-color="gray" stop-opacity=".12"/>
            <stop offset="100%" stop-color="gray" stop-opacity=".1"/>
        </linearGradient>
        <linearGradient id="b" x1="56363%" x2="56363%" y1="81212%" y2="62412%">
            <stop offset="0%" stop-color="gray" stop-opacity=".25"/>
            <stop offset="54%" stop-color="gray" stop-opacity=".12"/>
            <stop offset="100%" stop-color="gray" stop-opacity=".1"/>
        </linearGradient>
    </defs>
    <g fill="none" fill-rule="evenodd">
        <path fill="#E3E3E3" fill-rule="nonzero" d="M169.898 73.001c-1.437-7.962-2.898-16.008-6.147-23.405a51.315 51.315 0 0 0-16.282-20.474 5.439 5.439 0 0 0-3.69-1.101c-2.04.182-2.682 1.451-3.012 2.805-.038.157-.073.315-.104.473-.812 4.039-.271 8.028.902 11.962 1.465 4.908 3.912 9.729 5.942 14.444a97.137 97.137 0 0 1 7.216 26.732c.15 1.224.268 2.475.299 3.723.02.745.003 1.49-.052 2.234a13.452 13.452 0 0 1-.968 4.238 6.65 6.65 0 0 1-.31.66c-.11.205-.226.418-.346.637-1.247 2.058-3.197 3.562-5.103 5.02-1.905 1.46-4.064 3.023-6.345 3.808h.077a9.07 9.07 0 0 1-3.305.55c-3.516-.108-7.264-2.973-10.805-2.3h-.02a5.895 5.895 0 0 0-.4.092c-3.623.992-6.4 6.738-6.42 10.416v.031c0 .29.01.572.03.845 0 .098.025.193.035.288.021.182.038.35.07.543.017.109.045.21.066.319.02.109.066.315.107.466.042.151.066.21.097.32.032.108.09.283.14.42.048.137.083.207.124.305.042.098.111.26.174.386.062.126.1.196.152.29.053.095.132.243.205.351.073.109.118.182.177.274.06.09.153.224.236.33.084.104.132.171.202.255.069.084.173.207.263.305.09.098.146.161.223.239.076.077.194.192.291.284.097.09.156.147.24.217.083.07.211.175.319.263.107.087.166.133.253.2.087.066.233.164.347.242l.264.175c.125.08.254.154.382.228l.267.154c.143.077.285.147.43.217l.254.127c.208.094.42.185.632.273l.312.12c.163.059.326.122.493.178l.347.112.403.123.395.102.382.094.424.091.368.074.444.077.347.056.462.06.347.038.479.046.347.024.493.029H134.953l.566-.025h.201l.604-.046h.115a19.616 19.616 0 0 0 5.015-1.114c5.123-1.96 9.465-5.55 13.492-9.305 7.983-7.446 15.518-16.684 16.157-27.64.222-4.025-.49-8.01-1.205-11.955z" opacity=".5"/>
        <path fill="#FFE4B1" fill-rule="nonzero" d="M144.162 117.874c4.803-1.793 8.873-5.076 12.648-8.512 7.478-6.814 14.55-15.267 15.148-25.276.217-3.661-.452-7.312-1.118-10.917-1.346-7.284-2.717-14.646-5.761-21.414a47.17 47.17 0 0 0-15.266-18.732 5.183 5.183 0 0 0-3.454-1.01c-2.137.185-2.643 1.614-2.924 2.983-1.713 8.306 2.984 16.39 6.41 24.16a87.212 87.212 0 0 1 6.766 24.46c.445 3.577.601 7.45-1.307 10.531-1.168 1.882-2.999 3.261-4.783 4.592-2.67 1.994-5.63 4.08-8.977 3.98-3.429-.101-7.09-2.93-10.522-2.014-3.433.916-6 6.164-6.022 9.53-.05 9.082 12.73 10.04 19.162 7.64z"/>
        <path fill="#000" fill-rule="nonzero" d="M125.293 109.63c.018-3.06 2.183-7.7 5.116-9.092-.499-.011-.997.047-1.48.173-3.3.89-5.829 6.063-5.85 9.374-.051 8.36 10.744 9.741 17.264 7.97-6.475.939-15.084-.957-15.05-8.425z" opacity=".1"/>
        <path fill="#E3E3E3" fill-rule="nonzero" d="M315.224 151.535s-9.397-22.068-13.853-39.437l-2.028-11.895a8.793 8.793 0 0 0 3.98-7.356c-.002-4.038-2.76-7.56-6.694-8.547l-.45-2.635h-39.285V68.597h-64.282v13.03h-57.137V66.245h-21.84a10.627 10.627 0 0 0 3.37-11.845c-1.514-4.26-5.56-7.107-10.1-7.107s-8.588 2.848-10.1 7.107a10.627 10.627 0 0 0 3.369 11.845H67.622v15.4H36.637a10.18 10.18 0 0 0-12.37-.867 10.03 10.03 0 0 0-3.959 5.094 10.055 10.055 0 0 0 1.165 12.758l9.246 9.351v6.456c-2.818 8.982-8.83 25.057-21.427 50.113-1.189 1.183-28.569 52.121 16.664 68.704H302.13s47.615-8.28 13.094-81.72z" opacity=".5"/>
        <path fill="#000" fill-rule="nonzero" d="M70 68h63v19H70z" opacity=".1"/>
        <path fill="#6C63FF" fill-rule="nonzero" d="M70 68h63v17H70z"/>
        <circle cx="109.5" cy="59.5" r="10.5" fill="#6C63FF" fill-rule="nonzero"/>
        <path fill="#6C63FF" fill-rule="nonzero" d="M49 104h123v66H49z"/>
        <path fill="#B25187" fill-rule="nonzero" d="M49 104h123v66H49z"/>
        <path fill="#B25187" fill-rule="nonzero" d="M309.001 152.23c32.993 70.778-12.516 78.77-12.516 78.77H155.413L152 102l141.644.57C294.783 118.553 309 152.227 309 152.227"/>
        <path fill="#842E5C" fill-rule="nonzero" d="M42 91h250v19H42z"/>
        <path fill="#000" fill-rule="nonzero" d="M171.101 149.269S152.837 119.189 148 102l6.527 127s50.916-9.114 16.574-79.731z" opacity=".1"/>
        <path fill="#E3E3E3" fill-rule="nonzero" d="M77.632 13.758s18.734-3.775 28.1 0c0 0 5.621-13.21 11.241-13.21 5.62 0 7.494 20.758 7.494 20.758l7.494 30.2s35.598 64.167 0 98.14c-35.599 33.973-91.804-3.774-91.804-28.308 0-24.533 11.24-75.491 11.24-75.491S62.637 4.325 66.37.551c3.733-3.775 11.262 13.207 11.262 13.207z" opacity=".5"/>
        <path fill="#FFE4B1" fill-rule="nonzero" d="M78.219 17.053s18.104-3.584 27.156 0c0 0 5.433-12.547 10.852-12.547 5.418 0 7.242 19.717 7.242 19.717l7.243 28.68s34.398 60.948 0 93.232C96.312 178.42 42 142.552 42 119.247c0-23.304 10.851-71.705 10.851-71.705S63.703 8.104 67.336 4.52C70.97.936 78.22 17.053 78.22 17.053z"/>
        <path fill="#444" fill-rule="nonzero" d="M81.5 69.414C84.007 66.316 87.887 64.5 92 64.5s7.993 1.816 10.5 4.914l-1.097 1.086c-2.297-2.872-5.607-4.522-9.403-4.522-3.796 0-7.001 1.65-9.298 4.522L81.5 69.414z"/>
        <path fill="#CC6C9D" fill-rule="nonzero" d="M37.415 106.25s-2.258 15.9-22.595 56.8c-1.131 1.137-27.115 52.05 15.817 67.95h122.016s45.201-10.047 12.425-80.463c0 0-16.38-34.637-17.512-50.537l-60.44 56.22-49.711-49.97z"/>
        <g fill="#FFF" fill-rule="nonzero" opacity=".1">
            <path d="M143.227 85.684a143.636 143.636 0 0 0-12.642-33.872l1.142 4.58a143.562 143.562 0 0 1 11.5 29.292zM45.296 113.987c0-23.562 8.733-63.037 8.733-63.037S64.858 11.076 68.484 7.453C72.11 3.829 79.312 20.14 79.312 20.14s18.067-3.623 27.1 0c0 0 5.422-12.688 10.83-12.688 2.095 0 3.66 3.006 4.781 6.682-1.1-5.375-2.976-11.262-5.938-11.262-5.421 0-10.829 12.688-10.829 12.688-9.033-3.623-27.1 0-27.1 0S70.93-.75 67.327 2.873C63.726 6.496 52.873 46.37 52.873 46.37s-8.733 39.475-8.733 63.037c.014 2.13 1.156 5.256 1.156 4.58z"/>
        </g>
        <path fill="#6C63FF" fill-rule="nonzero" d="M89 140.785L142.457 85h145.08c4.674 0 8.463 3.793 8.463 8.472a8.476 8.476 0 0 1-2.522 6.033 8.459 8.459 0 0 1-6.063 2.438L150.425 99.8 89 159v-18.215zM41.936 84.512L88 140.954V159L27.745 97.362a9.653 9.653 0 0 1-2.695-7.73 9.625 9.625 0 0 1 4.204-7.016 9.51 9.51 0 0 1 12.682 1.896z"/>
        <path fill="#000" fill-rule="nonzero" d="M89 144.782L142.457 89h145.08c4.674 0 8.463 3.793 8.463 8.471a8.475 8.475 0 0 1-2.516 6.045 8.46 8.46 0 0 1-6.07 2.444L150.42 103.8 89 163v-18.218z" opacity=".1"/>
        <path fill="#B25187" fill-rule="nonzero" d="M89 140.785L142.457 85h145.08c4.674 0 8.463 3.793 8.463 8.472a8.476 8.476 0 0 1-2.522 6.033 8.459 8.459 0 0 1-6.063 2.438L150.425 99.8 89 159v-18.215z"/>
        <path fill="#000" fill-rule="nonzero" d="M41.94 86.515L88 142.954V161L27.745 99.362a9.653 9.653 0 0 1-2.695-7.73 9.625 9.625 0 0 1 4.204-7.016 9.51 9.51 0 0 1 12.685 1.9z" opacity=".1"/>
        <path fill="#B25187" fill-rule="nonzero" d="M41.936 84.512L88 140.954V159L27.745 97.362a9.653 9.653 0 0 1-2.695-7.73 9.625 9.625 0 0 1 4.204-7.016 9.51 9.51 0 0 1 12.682 1.896z"/>
        <path fill="#FFF" fill-rule="nonzero" d="M59 195h63v13H59zM216 195h63v13h-63z" opacity=".5"/>
        <path fill="#B25187" fill-rule="nonzero" d="M190 70h61v21h-61z"/>
        <circle cx="217.5" cy="61.5" r="10.5" fill="#B25187" fill-rule="nonzero"/>
        <circle cx="86.5" cy="154.5" r="12.5" fill="#000" fill-rule="nonzero" opacity=".1"/>
        <circle cx="86.5" cy="152.5" r="12.5" fill="#842E5C" fill-rule="nonzero"/>
        <circle cx="113" cy="48" r="3" fill="#444" fill-rule="nonzero"/>
        <circle cx="71" cy="48" r="3" fill="#444" fill-rule="nonzero"/>
        <ellipse cx="92.5" cy="50" fill="#DF767D" fill-rule="nonzero" rx="5.5" ry="3"/>
        <path fill="#888" fill-rule="nonzero" d="M124.985 48.866l16.596-3.685.434 1.953-16.596 3.685zM124.988 52.876l18.633-3.713.391 1.961-18.633 3.713zM42.808 40.9l.743-1.856L61.192 46.1l-.743 1.856zM36.482 48.739l.304-1.977 22.732 3.5-.304 1.976z"/>
        <g fill-rule="nonzero">
            <path fill="url(#a)" d="M16.233 119.162c-.345-2.682.79-5.177 1.879-7.588 1.194-2.643 2.227-4.926 1.205-6.972-.466-.931-1.357-1.685-2.248-2.363-1.164-.879-2.417-1.709-3.64-2.511-2.103-1.39-4.278-2.821-6.167-4.631-3.709-3.561-5.349-8.019-4.392-11.924.828-3.373 3.356-5.791 5.8-8.126 2.508-2.397 4.877-4.659 5.09-7.667.29-4.093-3.604-7.397-7.04-10.311l-.535-.456c-4.193-3.57-8.005-9.456-4.932-14.292 1.068-1.692 2.687-2.693 4.255-3.662 1.05-.585 2.025-1.3 2.9-2.126 2.98-3.127 2.045-8.192 1.506-10.235-.411-1.55-.991-3.127-1.55-4.624-.826-2.234-1.682-4.54-2.072-6.983l-.066-.4C5.263 8.41 5.283 8.195 7.321 2.828l.255-.67 2.259.864-.256.674C7.735 8.56 7.735 8.56 8.612 13.913l.066.403c.345 2.21 1.136 4.308 1.961 6.531.58 1.564 1.178 3.183 1.62 4.864 1.38 5.156.6 9.728-2.1 12.549a16.516 16.516 0 0 1-3.374 2.511c-1.38.862-2.71 1.678-3.48 2.894-2.397 3.718 1.66 8.73 4.44 11.09l.532.451c3.685 3.127 8.288 7.015 7.894 12.344-.28 3.95-3.108 6.65-5.836 9.259C8.042 79 5.874 81.07 5.215 83.757c-.881 3.589 1.342 7.296 3.715 9.582 1.726 1.657 3.715 2.967 5.822 4.356 1.25.824 2.541 1.675 3.77 2.602 1.13.855 2.266 1.835 2.956 3.214 1.544 3.085.166 6.128-1.163 9.07-.995 2.2-1.934 4.278-1.682 6.275.456 3.61 4.931 5.632 8.664 5.19 3.053-.347 5.84-1.785 8.788-3.29.953-.486 1.94-.99 2.928-1.452 5.398-2.511 10.115-2.824 13.644-.903a17.86 17.86 0 0 1 3.087 2.293 18.042 18.042 0 0 0 2.362 1.827c3.977 2.184 8.954.925 11.433-2.89.21-.347.404-.737.608-1.143.652-1.289 1.381-2.748 2.856-3.571 1.536-.866 3.318-.695 4.62-.563l33.467 3.31-.235 2.431-33.467-3.31c-1.278-.124-2.396-.19-3.208.268-.811.459-1.34 1.48-1.885 2.554-.214.42-.435.858-.691 1.282-3.168 4.968-9.633 6.597-14.755 3.717a20.117 20.117 0 0 1-2.687-2.064 15.802 15.802 0 0 0-2.662-1.997c-3.578-1.95-8.219-.55-11.478.969-.95.441-1.917.934-2.85 1.414-3.007 1.535-6.115 3.127-9.599 3.537-.44.05-.883.074-1.326.073-4.606 0-9.43-2.731-10.014-7.376z" transform="translate(78 138)"/>
            <path fill="#77C544" d="M96.104 255.588c-.346-2.696.791-5.203 1.88-7.626 1.195-2.657 2.228-4.95 1.205-7.007-.466-.936-1.358-1.693-2.249-2.374-1.164-.883-2.418-1.718-3.642-2.524-2.104-1.397-4.28-2.835-6.17-4.654-3.71-3.58-5.352-8.059-4.395-11.983.83-3.39 3.358-5.82 5.805-8.166 2.508-2.41 4.878-4.682 5.092-7.706.29-4.113-3.607-7.433-7.044-10.363l-.536-.457c-4.194-3.59-8.009-9.504-4.934-14.364 1.068-1.7 2.688-2.706 4.257-3.68a14.518 14.518 0 0 0 2.902-2.136c2.982-3.143 2.045-8.233 1.506-10.286-.41-1.557-.991-3.142-1.55-4.647-.827-2.245-1.683-4.563-2.074-7.018l-.066-.401c-.963-5.911-.943-6.128 1.096-11.522l.255-.674 2.26.87-.256.677c-1.845 4.888-1.845 4.888-.967 10.268l.065.405c.346 2.22 1.137 4.33 1.963 6.564.58 1.571 1.178 3.198 1.62 4.888 1.382 5.181.601 9.776-2.1 12.61a16.53 16.53 0 0 1-3.376 2.525c-1.382.866-2.712 1.687-3.482 2.909-2.398 3.735 1.661 8.773 4.443 11.144l.532.454c3.686 3.142 8.292 7.05 7.898 12.405-.28 3.97-3.11 6.683-5.84 9.305-2.293 2.203-4.463 4.284-5.123 6.983-.88 3.606 1.344 7.332 3.718 9.629 1.727 1.665 3.717 2.982 5.825 4.378 1.25.828 2.543 1.683 3.772 2.615 1.13.86 2.267 1.844 2.958 3.23 1.544 3.1.166 6.159-1.164 9.116-.995 2.21-1.935 4.298-1.683 6.305.456 3.628 4.934 5.66 8.668 5.217 3.055-.35 5.843-1.795 8.793-3.307a95.796 95.796 0 0 1 2.93-1.46c5.4-2.524 10.12-2.838 13.65-.907a17.875 17.875 0 0 1 3.09 2.304 18.062 18.062 0 0 0 2.362 1.837c3.98 2.194 8.96.93 11.44-2.905.21-.35.404-.74.608-1.149.653-1.295 1.382-2.761 2.857-3.589 1.537-.87 3.32-.698 4.623-.566L191 254.072l-.235 2.444-33.474-3.317c-1.279-.125-2.398-.192-3.21.27-.812.46-1.34 1.487-1.886 2.566-.214.422-.436.862-.691 1.288-3.17 4.993-9.639 6.63-14.763 3.736a20.138 20.138 0 0 1-2.688-2.074 15.816 15.816 0 0 0-2.664-2.008c-3.58-1.958-8.223-.551-11.484.974-.95.444-1.918.94-2.85 1.421-3.01 1.544-6.12 3.143-9.605 3.555-.44.05-.884.075-1.327.073-4.609 0-9.435-2.744-10.02-7.412z"/>
        </g>
        <g transform="translate(165 218)">
            <circle cx="33.049" cy="32.871" r="32.829" fill="url(#b)" fill-rule="nonzero"/>
            <g transform="translate(0 2)">
                <circle cx="30.5" cy="30.5" r="30.5" fill="#77C544" fill-rule="nonzero"/>
                <path stroke="#000" d="M36 11s16.657 3.168 17 30M6.646 41S.05 19.065 29 7M13.401 34S10.767 23.02 19 17M32 17s6.382 5.429 3.023 19M46.348 6.285s11.29 7.384 12.304 26.43M28 5.492S35.879 3.683 41 7M19 43s5.93 9 30 0M15 53s3.293 6.685 15 5.942M15 7S5.1 13.107 4 26M11.4 39s-1.6 4.174 1.6 8M53 47s-3.13 9.031-8 7.902M21 51a19.062 19.062 0 0 0 17 0M40 22s3.556 3.692 1.185 8M23 24s-3.265 6.069-1.451 11M25 24s4.5 7.207 0 11" opacity=".2"/>
            </g>
        </g>
    </g>
</svg>
