<svg xmlns="http://www.w3.org/2000/svg" width="328" height="220" viewBox="0 0 328 220">
    <defs>
        <linearGradient id="a" x1="50%" x2="50%" y1="100%" y2="0%">
            <stop offset="0%" stop-color="#FFF" stop-opacity=".12"/>
            <stop offset="55%" stop-color="#FFF" stop-opacity=".09"/>
            <stop offset="100%" stop-color="#FFF" stop-opacity=".02"/>
        </linearGradient>
    </defs>
    <g fill="none" fill-rule="nonzero">
        <path fill="#E3E3E3" d="M1 13h327v61H1z"/>
        <path fill="#FFF" d="M3 16h323v55H3z"/>
        <path fill="#EDF9E8" d="M14 27h237v34H14z"/>
        <path fill="url(#a)" d="M262.5 38c-.667 0-.667 1 0 1s.667-1 0-1z"/>
        <path fill="#E3E3E3" d="M327 94.142H.135V220H327z"/>
        <path fill="#FFF" d="M323.178 97.213H4.051v118.761h319.127z"/>
        <path fill="#00BA6E" d="M235.151 135.23H123.374v13.319h111.777z"/>
        <path fill="#E0E0E0" d="M235.151 162.42H123.374v13.319h111.777z"/>
        <path fill="#F8E9F2" d="M109.123 97.213H3.492v118.761h105.631z"/>
        <g>
            <path fill="#E3E3E3" d="M280.355 21.793c-15.004-15.714-39.582-16.926-56.04-2.764-16.46 14.162-19.088 38.784-5.994 56.142 13.093 17.357 37.366 21.427 55.345 9.28l29.546 30.933a1.98 1.98 0 0 0 2.816.053l7.36-7.105a2.004 2.004 0 0 0 .053-2.833l-29.547-30.933c11.703-16.125 10.21-38.378-3.539-52.773zm-9.204 49.735c-11.641 11.26-30.149 10.893-41.34-.82-11.19-11.714-10.826-30.34.813-41.602 11.639-11.263 30.146-10.899 41.338.813 11.166 11.71 10.803 30.306-.811 41.565v.044z"/>
            <path fill="#73A9D9" d="M280.355 12.635c-15.004-15.714-39.582-16.926-56.04-2.764-16.46 14.162-19.088 38.784-5.994 56.142 13.093 17.357 37.366 21.427 55.345 9.28l29.546 30.933a1.98 1.98 0 0 0 2.816.053l7.36-7.105a2.004 2.004 0 0 0 .053-2.833l-29.547-30.933c11.703-16.124 10.21-38.377-3.539-52.773zm-9.204 49.735c-11.641 11.26-30.149 10.894-41.34-.82-11.19-11.714-10.826-30.34.813-41.602 11.639-11.263 30.146-10.898 41.338.813 11.19 11.714 10.826 30.338-.811 41.6v.01z"/>
        </g>
    </g>
</svg>
