<?xml version="1.0" encoding="UTF-8"?>
<svg width="195px" height="51px" viewBox="0 0 195 51" version="1.1" xmlns="http://www.w3.org/2000/svg" xmlns:xlink="http://www.w3.org/1999/xlink">
    <!-- Generator: Sketch 46.2 (44496) - http://www.bohemiancoding.com/sketch -->
    <title>Global Digital LIBRA</title>
    <desc>Created with Sketch.</desc>
    <defs></defs>
    <g id="Mobile" stroke="none" stroke-width="1" fill="none" fill-rule="evenodd">
        <path d="M0,12.9529178 C0,11.1491952 0.270554324,9.53150583 0.811671088,8.09980106 C1.35278785,6.66809629 2.09681224,5.45623838 3.04376658,4.46419098 C3.99072092,3.47214358 5.1067575,2.71684609 6.39190981,2.19827586 C7.67706213,1.67970563 9.06365304,1.4204244 10.5517241,1.4204244 C11.3183062,1.4204244 12.0285113,1.49933608 12.6823607,1.6571618 C13.3362102,1.81498753 13.9336843,2.02353982 14.4748011,2.28282493 C15.0159178,2.54211005 15.5119341,2.84084712 15.9628647,3.17904509 C16.4137954,3.51724307 16.8083537,3.86670907 17.1465517,4.22745358 L14.9820955,6.66246684 C14.4184322,6.12135008 13.8040484,5.6816993 13.1389257,5.34350133 C12.473803,5.00530335 11.6226842,4.8362069 10.5855438,4.8362069 C9.59349637,4.8362069 8.69728517,5.02221299 7.89688329,5.39423077 C7.09648141,5.76624854 6.4088225,6.29608409 5.83388594,6.98375332 C5.25894938,7.67142254 4.81366206,8.51126825 4.49801061,9.50331565 C4.18235916,10.4953631 4.02453581,11.6113996 4.02453581,12.8514589 C4.02453581,15.3766705 4.5938272,17.3550989 5.73242706,18.7868037 C6.87102691,20.2185085 8.55635489,20.9343501 10.7884615,20.9343501 C11.4197644,20.9343501 12.0172386,20.8498019 12.5809019,20.6807029 C13.1445652,20.5116039 13.6067621,20.2692323 13.9675066,19.9535809 L13.9675066,15.1850133 L9.77387268,15.1850133 L9.77387268,11.9721485 L17.484748,11.9721485 L17.484748,21.7122016 C16.7181659,22.4562371 15.7148603,23.081894 14.4748011,23.589191 C13.2347418,24.0964879 11.8481509,24.3501326 10.3149867,24.3501326 C8.84946217,24.3501326 7.48541745,24.1021245 6.22281167,23.6061008 C4.96020589,23.1100771 3.8667155,22.3773258 2.94230769,21.4078249 C2.01789989,20.4383241 1.29642169,19.2433758 0.777851459,17.8229443 C0.259281227,16.4025128 0,14.7791869 0,12.9529178 Z M22.0503979,0.0676392573 L25.9396552,0.0676392573 L25.9396552,19.8859416 C25.9396552,20.3594188 26.0298399,20.6919752 26.2102122,20.8836207 C26.3905845,21.0752662 26.5822271,21.1710875 26.7851459,21.1710875 L27.0387931,21.1710875 C27.117706,21.1710875 27.2360735,21.1485413 27.3938992,21.1034483 L27.9011936,24.0119363 C27.3826234,24.2374017 26.6949645,24.3501326 25.8381963,24.3501326 C24.4403113,24.3501326 23.4595519,23.933028 22.8958886,23.0988064 C22.3322253,22.2645847 22.0503979,21.1260019 22.0503979,19.6830239 L22.0503979,0.0676392573 Z M30.1332891,15.6584881 C30.1332891,14.2831496 30.347478,13.0543821 30.7758621,11.9721485 C31.2042462,10.889915 31.7848107,9.97679417 32.5175729,9.23275862 C33.2503352,8.48872307 34.0901809,7.91943168 35.0371353,7.52486737 C35.9840896,7.13030307 36.9761221,6.93302387 38.0132626,6.93302387 C39.0504031,6.93302387 40.0480721,7.13030307 41.0062997,7.52486737 C41.9645273,7.91943168 42.8043731,8.48872307 43.5258621,9.23275862 C44.2473511,9.97679417 44.8279156,10.889915 45.2675729,11.9721485 C45.7072303,13.0543821 45.9270557,14.2831496 45.9270557,15.6584881 C45.9270557,17.0338265 45.7072303,18.2625941 45.2675729,19.3448276 C44.8279156,20.4270611 44.2473511,21.340182 43.5258621,22.0842175 C42.8043731,22.8282531 41.9645273,23.3919079 41.0062997,23.7751989 C40.0480721,24.15849 39.0504031,24.3501326 38.0132626,24.3501326 C36.9761221,24.3501326 35.9840896,24.15849 35.0371353,23.7751989 C34.0901809,23.3919079 33.2503352,22.8282531 32.5175729,22.0842175 C31.7848107,21.340182 31.2042462,20.4270611 30.7758621,19.3448276 C30.347478,18.2625941 30.1332891,17.0338265 30.1332891,15.6584881 Z M34.1240053,15.6584881 C34.1240053,17.3269314 34.4678348,18.6627934 35.155504,19.6661141 C35.8431732,20.6694347 36.7957499,21.1710875 38.0132626,21.1710875 C39.2307753,21.1710875 40.1889885,20.6694347 40.887931,19.6661141 C41.5868735,18.6627934 41.9363395,17.3269314 41.9363395,15.6584881 C41.9363395,13.9674982 41.5868735,12.6203631 40.887931,11.6170424 C40.1889885,10.6137218 39.2307753,10.112069 38.0132626,10.112069 C36.7957499,10.112069 35.8431732,10.6137218 35.155504,11.6170424 C34.4678348,12.6203631 34.1240053,13.9674982 34.1240053,15.6584881 Z M49.7824934,0.0676392573 L53.6717507,0.0676392573 L53.6717507,6.22281167 L53.5702918,8.99602122 C54.2692343,8.38726486 55.0301683,7.8912486 55.8531167,7.50795756 C56.6760651,7.12466652 57.5159108,6.93302387 58.372679,6.93302387 C59.4098195,6.93302387 60.3342134,7.13030307 61.1458886,7.52486737 C61.9575637,7.91943168 62.6452226,8.48308652 63.2088859,9.21584881 C63.7725492,9.94861109 64.2009269,10.8335492 64.4940318,11.8706897 C64.7871367,12.9078301 64.933687,14.0689591 64.933687,15.3541114 C64.933687,16.7745429 64.7364078,18.0427663 64.3418435,19.1588196 C63.9472792,20.274873 63.4230802,21.2161765 62.7692308,21.9827586 C62.1153813,22.7493407 61.3600839,23.3355417 60.5033156,23.7413793 C59.6465474,24.1472169 58.7559728,24.3501326 57.831565,24.3501326 C57.0649829,24.3501326 56.2927758,24.1697631 55.5149204,23.8090186 C54.7370651,23.4482741 53.9986772,22.9297116 53.2997347,22.2533156 L53.1982759,22.2533156 L52.8600796,23.9442971 L49.7824934,23.9442971 L49.7824934,0.0676392573 Z M53.6717507,19.7506631 C54.2579605,20.2692334 54.838525,20.6299725 55.4134615,20.8328912 C55.9883981,21.03581 56.5238702,21.1372679 57.0198939,21.1372679 C58.124674,21.1372679 59.0490679,20.6581613 59.7931034,19.6999337 C60.537139,18.7417061 60.9091512,17.3156593 60.9091512,15.4217507 C60.9091512,13.7533073 60.6273238,12.4569012 60.0636605,11.5324934 C59.4999972,10.6080856 58.5868763,10.1458886 57.3242706,10.1458886 C56.1518509,10.1458886 54.9343564,10.7659089 53.6717507,12.0059682 L53.6717507,19.7506631 Z M68.1465517,19.4801061 C68.1465517,17.6989301 68.9243954,16.3236123 70.4801061,15.3541114 C72.0358168,14.3846105 74.5158981,13.7082247 77.9204244,13.3249337 C77.9204244,12.8965496 77.8640589,12.4850815 77.7513263,12.0905172 C77.6385936,11.6959529 77.4638606,11.3464869 77.227122,11.0421088 C76.9903834,10.7377306 76.6860098,10.5009955 76.313992,10.3318966 C75.9419743,10.1627976 75.4741407,10.0782493 74.9104775,10.0782493 C74.0762558,10.0782493 73.2702294,10.2360727 72.492374,10.5517241 C71.7145187,10.8673756 70.9648577,11.2506609 70.2433687,11.7015915 L68.8229443,9.09748011 C69.7473521,8.51127028 70.7788405,8.00398092 71.9174403,7.57559682 C73.0560402,7.14721271 74.2904443,6.93302387 75.6206897,6.93302387 C77.7175171,6.93302387 79.2732045,7.54740765 80.2877984,8.77619363 C81.3023923,10.0049796 81.8096817,11.7804924 81.8096817,14.1027851 L81.8096817,23.9442971 L78.6306366,23.9442971 L78.3262599,22.1180371 L78.2248011,22.1180371 C77.4807655,22.74934 76.6860122,23.2791756 75.8405172,23.7075597 C74.9950223,24.1359438 74.0762649,24.3501326 73.0842175,24.3501326 C71.6186929,24.3501326 70.4293812,23.9048453 69.5162467,23.0142573 C68.6031121,22.1236693 68.1465517,20.9456307 68.1465517,19.4801061 Z M71.9343501,19.1757294 C71.9343501,19.919765 72.1541755,20.4608736 72.5938329,20.7990716 C73.0334903,21.1372696 73.6027817,21.306366 74.3017241,21.306366 C74.9781201,21.306366 75.5981404,21.1485427 76.1618037,20.8328912 C76.725467,20.5172398 77.311668,20.0663159 77.9204244,19.4801061 L77.9204244,15.7599469 C76.7930978,15.8952261 75.8461577,16.0755957 75.0795756,16.301061 C74.3129935,16.5265263 73.6986097,16.780171 73.2364058,17.0620027 C72.7742019,17.3438343 72.4416456,17.6651176 72.2387268,18.0258621 C72.035808,18.3866066 71.9343501,18.7698919 71.9343501,19.1757294 Z M86.5444297,0.0676392573 L90.433687,0.0676392573 L90.433687,19.8859416 C90.433687,20.3594188 90.5238718,20.6919752 90.704244,20.8836207 C90.8846163,21.0752662 91.0762589,21.1710875 91.2791777,21.1710875 L91.5328249,21.1710875 C91.6117378,21.1710875 91.7301053,21.1485413 91.887931,21.1034483 L92.3952255,24.0119363 C91.8766552,24.2374017 91.1889963,24.3501326 90.3322281,24.3501326 C88.9343431,24.3501326 87.9535837,23.933028 87.3899204,23.0988064 C86.8262571,22.2645847 86.5444297,21.1260019 86.5444297,19.6830239 L86.5444297,0.0676392573 Z M102.980769,1.82625995 L108.899204,1.82625995 C112.281184,1.82625995 114.919089,2.73938079 116.812997,4.56564987 C118.706906,6.39191895 119.653846,9.13128147 119.653846,12.7838196 C119.653846,14.6100887 119.411475,16.2221416 118.926724,17.6200265 C118.441974,19.0179115 117.743042,20.184677 116.829907,21.1203581 C115.916773,22.0560392 114.812009,22.7606077 113.515584,23.2340849 C112.219158,23.707562 110.748019,23.9442971 109.102122,23.9442971 L102.980769,23.9442971 L102.980769,1.82625995 Z M108.628647,20.765252 C110.8833,20.765252 112.613721,20.1170489 113.81996,18.8206233 C115.0262,17.5241978 115.62931,15.51195 115.62931,12.7838196 C115.62931,10.0782358 115.020563,8.10544387 113.80305,6.86538462 C112.585538,5.62532536 110.860754,5.00530504 108.628647,5.00530504 L106.903846,5.00530504 L106.903846,20.765252 L108.628647,20.765252 Z M125.741379,4.43037135 C125.042437,4.43037135 124.467509,4.22745561 124.016578,3.82161804 C123.565648,3.41578046 123.340186,2.88594491 123.340186,2.23209549 C123.340186,1.57824607 123.565648,1.04277397 124.016578,0.62566313 C124.467509,0.208552291 125.042437,0 125.741379,0 C126.440322,0 127.01525,0.208552291 127.46618,0.62566313 C127.917111,1.04277397 128.142573,1.57824607 128.142573,2.23209549 C128.142573,2.88594491 127.917111,3.41578046 127.46618,3.82161804 C127.01525,4.22745561 126.440322,4.43037135 125.741379,4.43037135 Z M123.779841,7.33885942 L127.669098,7.33885942 L127.669098,23.9442971 L123.779841,23.9442971 L123.779841,7.33885942 Z M134.77122,26.3793103 C134.77122,27.1233459 135.148869,27.7039104 135.904178,28.1210212 C136.659487,28.5381321 137.702248,28.7466844 139.032493,28.7466844 C140.385285,28.7466844 141.473139,28.4817666 142.296088,27.9519231 C143.119036,27.4220796 143.530504,26.7964227 143.530504,26.0749337 C143.530504,25.4210843 143.276859,24.9814335 142.769562,24.7559682 C142.262265,24.5305029 141.535151,24.4177719 140.588196,24.4177719 L138.322281,24.4177719 C137.42042,24.4177719 136.665122,24.3388602 136.056366,24.1810345 C135.199598,24.8348839 134.77122,25.5676352 134.77122,26.3793103 Z M131.524536,26.954244 C131.524536,26.2553015 131.727452,25.6070985 132.133289,25.0096154 C132.539127,24.4121323 133.125328,23.8766602 133.89191,23.403183 L133.89191,23.2679045 C133.463526,22.9973461 133.108423,22.636607 132.826592,22.1856764 C132.54476,21.7347458 132.403846,21.1710909 132.403846,20.494695 C132.403846,19.8408455 132.589852,19.249008 132.96187,18.7191645 C133.333888,18.189321 133.756629,17.7553067 134.230106,17.4171088 L134.230106,17.2818302 C133.666443,16.8534461 133.16479,16.2616086 132.725133,15.5062997 C132.285475,14.7509909 132.06565,13.8773259 132.06565,12.8852785 C132.06565,11.9383242 132.246019,11.0928419 132.606764,10.3488064 C132.967508,9.60477082 133.446615,8.97911394 134.044098,8.47181698 C134.641581,7.96452001 135.334877,7.58123472 136.124005,7.3219496 C136.913134,7.06266449 137.747343,6.93302387 138.626658,6.93302387 C139.077588,6.93302387 139.511603,6.97247971 139.928714,7.05139257 C140.345824,7.13030543 140.723473,7.22612676 141.061671,7.33885942 L147.013926,7.33885942 L147.013926,10.2135279 L143.970159,10.2135279 C144.240718,10.5291793 144.466179,10.9293742 144.646552,11.4141247 C144.826924,11.8988751 144.917109,12.4343472 144.917109,13.020557 C144.917109,13.9449648 144.753649,14.7566278 144.426724,15.4555703 C144.099799,16.1545128 143.654512,16.7407138 143.090849,17.214191 C142.527186,17.6876681 141.862073,18.0484072 141.095491,18.2964191 C140.328909,18.5444309 139.505973,18.668435 138.626658,18.668435 C138.265913,18.668435 137.893901,18.6346157 137.51061,18.5669761 C137.127319,18.4993365 136.744034,18.3866056 136.360743,18.2287798 C136.112731,18.4542452 135.915452,18.6797071 135.768899,18.9051724 C135.622347,19.1306377 135.549072,19.4350113 135.549072,19.8183024 C135.549072,20.2917796 135.746351,20.6637918 136.140915,20.9343501 C136.535479,21.2049085 137.240048,21.3401857 138.254642,21.3401857 L141.19695,21.3401857 C143.203591,21.3401857 144.719822,21.6614689 145.74569,22.3040451 C146.771557,22.9466212 147.284483,23.9893827 147.284483,25.4323607 C147.284483,26.2440359 147.07593,27.0106065 146.65882,27.7320955 C146.241709,28.4535845 145.649871,29.0736048 144.883289,29.5921751 C144.116707,30.1107453 143.186677,30.5222133 142.09317,30.8265915 C140.999663,31.1309697 139.776532,31.2831565 138.42374,31.2831565 C137.431693,31.2831565 136.512935,31.1929717 135.66744,31.0125995 C134.821945,30.8322272 134.094831,30.5616729 133.486074,30.2009284 C132.877318,29.8401839 132.398211,29.38926 132.04874,28.8481432 C131.699269,28.3070265 131.524536,27.6757331 131.524536,26.954244 Z M138.626658,16.2334218 C139.415786,16.2334218 140.092172,15.9459578 140.655836,15.3710212 C141.219499,14.7960847 141.501326,13.967512 141.501326,12.8852785 C141.501326,11.8481381 141.225135,11.0421116 140.672745,10.4671751 C140.120355,9.8922385 139.438333,9.60477454 138.626658,9.60477454 C137.814983,9.60477454 137.127324,9.88660196 136.56366,10.4502653 C135.999997,11.0139285 135.71817,11.8255915 135.71817,12.8852785 C135.71817,13.967512 135.999997,14.7960847 136.56366,15.3710212 C137.127324,15.9459578 137.814983,16.2334218 138.626658,16.2334218 Z M152.188329,4.43037135 C151.489386,4.43037135 150.914458,4.22745561 150.463528,3.82161804 C150.012597,3.41578046 149.787135,2.88594491 149.787135,2.23209549 C149.787135,1.57824607 150.012597,1.04277397 150.463528,0.62566313 C150.914458,0.208552291 151.489386,0 152.188329,0 C152.887271,0 153.462199,0.208552291 153.91313,0.62566313 C154.364061,1.04277397 154.589523,1.57824607 154.589523,2.23209549 C154.589523,2.88594491 154.364061,3.41578046 153.91313,3.82161804 C153.462199,4.22745561 152.887271,4.43037135 152.188329,4.43037135 Z M150.22679,7.33885942 L154.116048,7.33885942 L154.116048,23.9442971 L150.22679,23.9442971 L150.22679,7.33885942 Z M159.662467,10.4164456 L157.295093,10.4164456 L157.295093,7.50795756 L159.865385,7.33885942 L160.338859,2.80702918 L163.585544,2.80702918 L163.585544,7.33885942 L167.812997,7.33885942 L167.812997,10.4164456 L163.585544,10.4164456 L163.585544,18.3302387 C163.585544,20.2692405 164.363387,21.2387268 165.919098,21.2387268 C166.212203,21.2387268 166.51094,21.2049075 166.815318,21.1372679 C167.119696,21.0696283 167.395887,20.9794435 167.643899,20.8667109 L168.320292,23.7413793 C167.869361,23.899205 167.356435,24.0401187 166.781499,24.1641247 C166.206562,24.2881306 165.592178,24.3501326 164.938329,24.3501326 C163.968828,24.3501326 163.151529,24.2035824 162.486406,23.9104775 C161.821283,23.6173725 161.280174,23.2059045 160.863064,22.676061 C160.445953,22.1462175 160.141579,21.5149241 159.949934,20.7821618 C159.758288,20.0493995 159.662467,19.2321 159.662467,18.3302387 L159.662467,10.4164456 Z M170.586207,19.4801061 C170.586207,17.6989301 171.364051,16.3236123 172.919761,15.3541114 C174.475472,14.3846105 176.955553,13.7082247 180.36008,13.3249337 C180.36008,12.8965496 180.303714,12.4850815 180.190981,12.0905172 C180.078249,11.6959529 179.903516,11.3464869 179.666777,11.0421088 C179.430039,10.7377306 179.125665,10.5009955 178.753647,10.3318966 C178.381629,10.1627976 177.913796,10.0782493 177.350133,10.0782493 C176.515911,10.0782493 175.709885,10.2360727 174.932029,10.5517241 C174.154174,10.8673756 173.404513,11.2506609 172.683024,11.7015915 L171.262599,9.09748011 C172.187007,8.51127028 173.218496,8.00398092 174.357095,7.57559682 C175.495695,7.14721271 176.730099,6.93302387 178.060345,6.93302387 C180.157172,6.93302387 181.71286,7.54740765 182.727454,8.77619363 C183.742048,10.0049796 184.249337,11.7804924 184.249337,14.1027851 L184.249337,23.9442971 L181.070292,23.9442971 L180.765915,22.1180371 L180.664456,22.1180371 C179.920421,22.74934 179.125667,23.2791756 178.280172,23.7075597 C177.434677,24.1359438 176.51592,24.3501326 175.523873,24.3501326 C174.058348,24.3501326 172.869036,23.9048453 171.955902,23.0142573 C171.042767,22.1236693 170.586207,20.9456307 170.586207,19.4801061 Z M174.374005,19.1757294 C174.374005,19.919765 174.593831,20.4608736 175.033488,20.7990716 C175.473145,21.1372696 176.042437,21.306366 176.741379,21.306366 C177.417775,21.306366 178.037796,21.1485427 178.601459,20.8328912 C179.165122,20.5172398 179.751323,20.0663159 180.36008,19.4801061 L180.36008,15.7599469 C179.232753,15.8952261 178.285813,16.0755957 177.519231,16.301061 C176.752649,16.5265263 176.138265,16.780171 175.676061,17.0620027 C175.213857,17.3438343 174.881301,17.6651176 174.678382,18.0258621 C174.475463,18.3866066 174.374005,18.7698919 174.374005,19.1757294 Z M188.984085,0.0676392573 L192.873342,0.0676392573 L192.873342,19.8859416 C192.873342,20.3594188 192.963527,20.6919752 193.143899,20.8836207 C193.324271,21.0752662 193.515914,21.1710875 193.718833,21.1710875 L193.97248,21.1710875 C194.051393,21.1710875 194.16976,21.1485413 194.327586,21.1034483 L194.834881,24.0119363 C194.31631,24.2374017 193.628651,24.3501326 192.771883,24.3501326 C191.373998,24.3501326 190.393239,23.933028 189.829576,23.0988064 C189.265912,22.2645847 188.984085,21.1260019 188.984085,19.6830239 L188.984085,0.0676392573 Z M0.588461538,33.3055703 L3.72692308,33.3055703 L3.72692308,48.3485411 L11.0860743,48.3485411 L11.0860743,51 L0.588461538,51 L0.588461538,33.3055703 Z M14.1704244,33.3055703 L17.3088859,33.3055703 L17.3088859,51 L14.1704244,51 L14.1704244,33.3055703 Z M21.8001326,33.3055703 L27.4547745,33.3055703 C28.374673,33.3055703 29.2179007,33.3822274 29.9844828,33.5355438 C30.7510648,33.6888602 31.4184322,33.9323591 31.9866048,34.2660477 C32.5547774,34.5997364 32.9966828,35.0461511 33.3123342,35.605305 C33.6279857,36.164459 33.785809,36.8498633 33.785809,37.6615385 C33.785809,38.5092881 33.5378009,39.2938956 33.0417772,40.0153846 C32.5457535,40.7368736 31.7836921,41.2328899 30.7555703,41.5034483 L30.7555703,41.6116711 C32.0362133,41.8281178 33.0147181,42.2835509 33.6911141,42.9779841 C34.36751,43.6724173 34.7057029,44.6148482 34.7057029,45.805305 C34.7057029,46.6891291 34.5343518,47.4556997 34.1916446,48.1050398 C33.8489373,48.7543799 33.3754672,49.2954886 32.7712202,49.728382 C32.1669731,50.1612754 31.4500041,50.4814313 30.6202918,50.6888594 C29.7905794,50.8962875 28.8887317,51 27.9147215,51 L21.8001326,51 L21.8001326,33.3055703 Z M27.1842175,40.6376658 C28.4287861,40.6376658 29.3261246,40.4122038 29.8762599,39.9612732 C30.4263953,39.5103426 30.7014589,38.8700307 30.7014589,38.0403183 C30.7014589,37.2286432 30.4128676,36.6424421 29.8356764,36.2816976 C29.2584852,35.9209531 28.3927113,35.7405836 27.2383289,35.7405836 L24.9385942,35.7405836 L24.9385942,40.6376658 L27.1842175,40.6376658 Z M27.5900531,48.5649867 C28.8887333,48.5649867 29.8897843,48.3214878 30.5932361,47.8344828 C31.2966879,47.3474777 31.6484085,46.598944 31.6484085,45.5888594 C31.6484085,44.6689609 31.3057063,43.9880659 30.6202918,43.5461538 C29.9348772,43.1042418 28.9248077,42.8832891 27.5900531,42.8832891 L24.9385942,42.8832891 L24.9385942,48.5649867 L27.5900531,48.5649867 Z M41.0908488,41.5846154 L43.6070292,41.5846154 C44.8155233,41.5846154 45.7399172,41.332098 46.3802387,40.8270557 C47.0205602,40.3220134 47.3407162,39.5644613 47.3407162,38.5543767 C47.3407162,37.5262548 47.0205602,36.8137951 46.3802387,36.4169761 C45.7399172,36.0201572 44.8155233,35.8217507 43.6070292,35.8217507 L41.0908488,35.8217507 L41.0908488,41.5846154 Z M47.6112732,51 L43.7964191,44.0737401 L41.0908488,44.0737401 L41.0908488,51 L37.9523873,51 L37.9523873,33.3055703 L43.9316976,33.3055703 C44.8515961,33.3055703 45.7083515,33.3957551 46.5019894,33.5761273 C47.2956273,33.7564996 47.9810316,34.0496001 48.5582228,34.4554377 C49.135414,34.8612752 49.5908471,35.3978746 49.9245358,36.065252 C50.2582245,36.7326293 50.4250663,37.5623293 50.4250663,38.5543767 C50.4250663,39.9071686 50.1049104,40.9984043 49.4645889,41.8281167 C48.8242674,42.6578291 47.9720212,43.2530486 46.9078249,43.6137931 L51.1285146,51 L47.6112732,51 Z M61.6802387,43.7490716 L61.0579576,41.5846154 C60.769362,40.6466797 60.4942984,39.6817026 60.2327586,38.6896552 C59.9712189,37.6976078 59.7141922,36.7145937 59.4616711,35.7405836 L59.3534483,35.7405836 C59.1009271,36.732631 58.8484098,37.7201542 58.5958886,38.703183 C58.3433674,39.6862118 58.0728131,40.6466797 57.7842175,41.5846154 L57.1619363,43.7490716 L61.6802387,43.7490716 Z M62.383687,46.2111406 L56.4314324,46.2111406 L55.0515915,51 L51.8590186,51 L57.6218833,33.3055703 L61.3014589,33.3055703 L67.0643236,51 L63.7635279,51 L62.383687,46.2111406 Z M72.3942971,41.5846154 L74.9104775,41.5846154 C76.1189716,41.5846154 77.0433655,41.332098 77.683687,40.8270557 C78.3240085,40.3220134 78.6441645,39.5644613 78.6441645,38.5543767 C78.6441645,37.5262548 78.3240085,36.8137951 77.683687,36.4169761 C77.0433655,36.0201572 76.1189716,35.8217507 74.9104775,35.8217507 L72.3942971,35.8217507 L72.3942971,41.5846154 Z M78.9147215,51 L75.0998674,44.0737401 L72.3942971,44.0737401 L72.3942971,51 L69.2558355,51 L69.2558355,33.3055703 L75.2351459,33.3055703 C76.1550444,33.3055703 77.0117997,33.3957551 77.8054377,33.5761273 C78.5990756,33.7564996 79.2844799,34.0496001 79.8616711,34.4554377 C80.4388623,34.8612752 80.8942954,35.3978746 81.2279841,36.065252 C81.5616728,36.7326293 81.7285146,37.5623293 81.7285146,38.5543767 C81.7285146,39.9071686 81.4083586,40.9984043 80.7680371,41.8281167 C80.1277156,42.6578291 79.2754695,43.2530486 78.2112732,43.6137931 L82.4319629,51 L78.9147215,51 Z M88.4112732,44.4254642 L83.1083554,33.3055703 L86.4632626,33.3055703 L88.3842175,37.8238727 C88.6367387,38.49125 88.889256,39.1360712 89.1417772,39.7583554 C89.3942983,40.3806397 89.6648527,41.0344793 89.9534483,41.7198939 L90.0616711,41.7198939 C90.3502667,41.0344793 90.6298395,40.3806397 90.9003979,39.7583554 C91.1709563,39.1360712 91.4324921,38.49125 91.6850133,37.8238727 L93.6059682,33.3055703 L96.8797082,33.3055703 L91.5497347,44.4254642 L91.5497347,51 L88.4112732,51 L88.4112732,44.4254642 Z" id="Global-Digital-LIBRA" fill="#FFFFFF"></path>
    </g>
</svg>