<?xml version="1.0" ?><svg id="Layer_1" style="enable-background:new 0 0 512 512;" version="1.1" viewBox="0 0 512 512" xml:space="preserve" xmlns="http://www.w3.org/2000/svg" xmlns:xlink="http://www.w3.org/1999/xlink"><style type="text/css">
	.cam0{fill:#2D2D87;}
	.cam1{fill:#BA2025;}
	.cam2{fill:#FFFFFF;}
</style><g id="XMLID_1_"><rect class="cam0" height="298.7" id="XMLID_292_" width="512" y="106.7"/><rect class="cam1" height="149.3" id="XMLID_291_" width="512" y="181.3"/><rect class="cam2" height="30.7" id="XMLID_290_" width="189.9" x="161.1" y="255.7"/><g><path class="cam1" d="M351.3,286.8H161.1l-0.4-31.1l190.2-0.4L351.3,286.8L351.3,286.8z M350.6,255.7l-189.5,0.4l0.4,30.3    l189.1-0.4V255.7L350.6,255.7z"/></g><polygon class="cam2" id="XMLID_287_" points="160.9,286.4 157.9,293.6 354.1,293.6 351.1,286.4  "/><g><path class="cam1" d="M354.7,294H157.3l3.3-7.7l190.5-0.2L354.7,294L354.7,294z M158.4,293.3h195.1l-2.8-6.7l-189.8,0.2    L158.4,293.3L158.4,293.3z"/></g><polygon class="cam2" id="XMLID_284_" points="310.9,286.4 307.2,293.6 351.8,293.6 348.1,286.4  "/><g><path class="cam1" d="M352.5,294h-45.9l4-7.8l37.5-0.2L352.5,294L352.5,294z M307.8,293.3h43.4l-3.4-6.7l-36.9,0.2L307.8,293.3    L307.8,293.3z"/></g><polygon class="cam2" id="XMLID_281_" points="321.7,286.4 319.8,293.6 342.3,293.6 340.4,286.4  "/><g><path class="cam1" d="M342.8,294h-23l1.5-7.7l19.1-0.3L342.8,294L342.8,294z M340,286.5l-18.4,0.3l-1.5,6.9l21.6-0.5L340,286.5    L340,286.5z"/></g><polygon class="cam2" id="XMLID_278_" points="325,286.4 323.8,293.6 338.3,293.6 337.1,286.4  "/><g><path class="cam1" d="M338.8,294h-15l0.8-7.7l12.5-0.3L338.8,294L338.8,294z M336.7,286.5l-11.7,0.3l-0.8,6.9l13.7-0.4L336.7,286.5    L336.7,286.5z"/></g><polygon class="cam2" id="XMLID_275_" points="236.4,286.4 232.5,293.6 279.5,293.6 275.6,286.4  "/><g><path class="cam1" d="M280.1,294h-48.2l4.2-7.8l39.4-0.2L280.1,294L280.1,294z M233.1,293.3h45.7l-3.6-6.7l-38.8,0.2L233.1,293.3    L233.1,293.3z"/></g><rect class="cam2" height="7.2" id="XMLID_272_" width="192" x="160" y="255.3"/><g><path class="cam1" d="M352.4,262.9H160l-0.4-7.6l192.4-0.4L352.4,262.9L352.4,262.9z M351.6,255.3L160,255.6l0.4,6.8l191.2-0.4    V255.3L351.6,255.3z"/></g><rect class="cam2" height="30.6" id="XMLID_269_" width="37.6" x="310.6" y="255.8"/><g><path class="cam1" d="M348.6,286.7h-38l-0.4-31l38-0.4L348.6,286.7L348.6,286.7z M347.9,255.8l-37.3,0.4l0.4,30.2l36.9-0.4V255.8    L347.9,255.8z"/></g><rect class="cam2" height="16.2" id="XMLID_266_" width="3.8" x="337.6" y="270.1"/><g><path class="cam1" d="M341.7,286.7h-4.1l-0.4-16.6l4.1-0.4L341.7,286.7L341.7,286.7z M340.9,270.1l-3.4,0.4l0.4,15.9l3-0.3V270.1    L340.9,270.1z"/></g><rect class="cam2" height="16.2" id="XMLID_263_" width="3.8" x="321" y="270.1"/><g><path class="cam1" d="M325.1,286.7H321l-0.4-16.6l4.1-0.4L325.1,286.7L325.1,286.7z M324.4,270.1l-3.4,0.4l0.4,15.9l3-0.3V270.1    L324.4,270.1z"/></g><polygon class="cam2" id="XMLID_260_" points="246,286.4 244.1,293.6 267.7,293.6 265.7,286.4  "/><g><path class="cam1" d="M268.2,294h-24.1l1.6-7.7l20-0.3L268.2,294L268.2,294z M265.3,286.5l-19.3,0.3l-1.6,6.9l22.7-0.5L265.3,286.5    L265.3,286.5z"/></g><polygon class="cam2" id="XMLID_257_" points="249.8,286.4 248.6,293.6 263.4,293.6 262.2,286.4  "/><g><path class="cam1" d="M263.8,294h-15.2l0.9-7.7l12.7-0.3L263.8,294L263.8,294z M261.8,286.5l-11.9,0.3l-0.9,6.9l14-0.4L261.8,286.5    L261.8,286.5z"/></g><rect class="cam2" height="30.7" id="XMLID_254_" width="39.6" x="236" y="255.7"/><g><path class="cam1" d="M276,286.8h-40l-0.4-31.1l40-0.4L276,286.8L276,286.8z M275.3,255.7l-39.3,0.4l0.4,30.3l38.9-0.4V255.7    L275.3,255.7z"/></g><rect class="cam2" height="16.2" id="XMLID_251_" width="3.8" x="267.6" y="270.1"/><g><path class="cam1" d="M271.7,286.7h-4.1l-0.4-16.6l4.1-0.4L271.7,286.7L271.7,286.7z M271,270.1l-3.4,0.4l0.4,15.9l3-0.3V270.1    L271,270.1z"/></g><rect class="cam2" height="16.2" id="XMLID_248_" width="3.8" x="241.4" y="270.1"/><g><path class="cam1" d="M245.5,286.7h-4.1l-0.4-16.6l4.1-0.4L245.5,286.7L245.5,286.7z M244.8,270.1l-3.4,0.4l0.4,15.9l3-0.3V270.1    L244.8,270.1z"/></g><rect class="cam2" height="38.1" id="XMLID_245_" width="19.2" x="246.4" y="248.3"/><g><path class="cam1" d="M266,286.8h-19.6l-0.4-38.5l19.6-0.4L266,286.8L266,286.8z M265.2,248.3l-18.8,0.4l0.4,37.7l18.4-0.4V248.3    L265.2,248.3z"/></g><rect class="cam2" height="16.2" id="XMLID_242_" width="3.8" x="260.8" y="270.1"/><g><path class="cam1" d="M264.9,286.7h-4.1l-0.4-16.6l4.1-0.4L264.9,286.7L264.9,286.7z M264.2,270.1l-3.4,0.4l0.4,15.9l3-0.3V270.1    L264.2,270.1z"/></g><rect class="cam2" height="16.2" id="XMLID_239_" width="3.8" x="248.2" y="270.1"/><g><path class="cam1" d="M252.3,286.7h-4.1l-0.4-16.6l4.1-0.4L252.3,286.7L252.3,286.7z M251.6,270.1l-3.4,0.4l0.4,15.9l3-0.3V270.1    L251.6,270.1z"/></g><polygon class="cam2" id="XMLID_236_" points="247.7,254.4 255.8,266.1 264.3,254.4  "/><g><path class="cam1" d="M255.8,266.8l-8.8-12.7h18.2L255.8,266.8L255.8,266.8z M248.4,254.8l7.4,10.7l7.8-10.7H248.4L248.4,254.8z"/></g><rect class="cam2" height="37.9" id="XMLID_233_" width="10.7" x="325.6" y="255.7"/><g><path class="cam1" d="M336.6,294h-11l-0.4-38.3l11-0.4L336.6,294L336.6,294z M335.9,255.7l-10.3,0.4l0.4,37.5l9.9-0.4V255.7    L335.9,255.7z"/></g><rect class="cam2" height="37.9" id="XMLID_230_" width="7.1" x="327.3" y="255.7"/><g><path class="cam1" d="M334.8,294h-7.5l-0.4-38.3l7.5-0.4L334.8,294L334.8,294z M334.1,255.7l-6.7,0.4l0.4,37.5l6.3-0.4V255.7    L334.1,255.7z"/></g><polygon class="cam2" id="XMLID_227_" points="163.5,286.4 159.8,293.6 204.4,293.6 200.7,286.4  "/><g><path class="cam1" d="M205,294h-45.9l4-7.8l37.5-0.2L205,294L205,294z M160.4,293.3h43.4l-3.4-6.7l-36.9,0.2L160.4,293.3    L160.4,293.3z"/></g><polygon class="cam2" id="XMLID_224_" points="172.4,286.4 170.7,293.6 191.7,293.6 189.9,286.4  "/><g><path class="cam1" d="M192.1,294h-21.5l1.4-7.7l17.9-0.3L192.1,294L192.1,294z M189.5,286.5l-17.1,0.3l-1.4,6.9l20.1-0.5    L189.5,286.5L189.5,286.5z"/></g><polygon class="cam2" id="XMLID_221_" points="175.5,286.4 174.4,293.6 187.8,293.6 186.7,286.4  "/><g><path class="cam1" d="M188.3,294h-13.8l0.7-7.7l11.5-0.3L188.3,294L188.3,294z M186.3,286.5l-10.8,0.3l-0.7,6.9l12.6-0.4    L186.3,286.5L186.3,286.5z"/></g><rect class="cam2" height="30.7" id="XMLID_218_" width="37.3" x="163.2" y="255.7"/><g><path class="cam1" d="M200.9,286.8h-37.7l-0.4-31.1l37.7-0.4L200.9,286.8L200.9,286.8z M200.2,255.7l-37,0.4l0.4,30.3l36.6-0.4    V255.7L200.2,255.7z"/></g><rect class="cam2" height="16.2" id="XMLID_215_" width="3.8" x="170.5" y="270.1"/><g><path class="cam1" d="M174.6,286.7h-4.1l-0.4-16.6l4.1-0.4L174.6,286.7L174.6,286.7z M173.9,270.1l-3.4,0.4l0.4,15.9l3-0.3V270.1    L173.9,270.1z"/></g><rect class="cam2" height="16.2" id="XMLID_212_" width="3.8" x="187.8" y="270.1"/><g><path class="cam1" d="M191.9,286.7h-4.1l-0.4-16.6l4.1-0.4L191.9,286.7L191.9,286.7z M191.2,270.1l-3.4,0.4l0.4,15.9l3-0.3V270.1    L191.2,270.1z"/></g><rect class="cam2" height="37.9" id="XMLID_209_" width="10.7" x="176" y="255.7"/><g><path class="cam1" d="M187,294h-11l-0.4-38.3l11-0.4L187,294L187,294z M186.3,255.7l-10.3,0.4l0.4,37.5l9.9-0.4V255.7L186.3,255.7z    "/></g><rect class="cam2" height="37.9" id="XMLID_206_" width="7.1" x="177.8" y="255.7"/><g><path class="cam1" d="M185.3,294h-7.5l-0.4-38.3l7.5-0.4L185.3,294L185.3,294z M184.5,255.7l-6.7,0.4l0.4,37.5l6.3-0.4V255.7    L184.5,255.7z"/></g><rect class="cam2" height="7.2" id="XMLID_203_" width="196.3" x="157.9" y="248.5"/><g><path class="cam1" d="M354.5,256.1H157.9l-0.4-7.6l196.6-0.4L354.5,256.1L354.5,256.1z M353.8,248.5l-195.9,0.4l0.4,6.8l195.5-0.4    V248.5L353.8,248.5z"/></g><rect class="cam2" height="9.3" id="XMLID_200_" width="206.4" x="152.4" y="291.8"/><g><path class="cam1" d="M359.2,301.5H152.4l-0.4-9.7l206.8-0.4L359.2,301.5L359.2,301.5z M358.4,291.8l-206,0.4l0.4,8.9l205.6-0.4    V291.8L358.4,291.8z"/></g><rect class="cam2" height="9.3" id="XMLID_197_" width="212.7" x="149.3" y="293.8"/><g><path class="cam1" d="M362.3,303.5H149.3l-0.4-9.7l213.1-0.4L362.3,303.5L362.3,303.5z M361.6,293.8l-212.3,0.4l0.4,8.9l211.9-0.4    V293.8L361.6,293.8z"/></g><rect class="cam2" height="9.3" id="XMLID_194_" width="224.5" x="143.8" y="299.1"/><g><path class="cam1" d="M368.6,308.8H143.8l-0.4-9.7l224.9-0.4L368.6,308.8L368.6,308.8z M367.9,299.1l-224.1,0.4l0.4,8.9l223.7-0.4    V299.1L367.9,299.1z"/></g><rect class="cam2" height="9.3" id="XMLID_191_" width="240.2" x="135.9" y="305.8"/><g><path class="cam1" d="M376.5,315.4H135.9l-0.4-9.7l240.6-0.4L376.5,315.4L376.5,315.4z M375.7,305.8l-239.9,0.4l0.4,8.9l239.5-0.4    V305.8L375.7,305.8z"/></g><rect class="cam2" height="9.2" id="XMLID_188_" width="255.9" x="128.1" y="315.1"/><g><path class="cam1" d="M384.3,324.7H128.1l-0.4-9.6l256.3-0.4L384.3,324.7L384.3,324.7z M383.6,315.1l-255.5,0.4l0.4,8.8l255.1-0.4    V315.1L383.6,315.1z"/></g><rect class="cam2" height="32.5" id="XMLID_185_" width="10.7" x="176" y="291.8"/><g><path class="cam1" d="M187,324.7h-11l-0.4-32.9l11-0.4L187,324.7L187,324.7z M186.3,291.8l-10.3,0.4l0.4,32.1l9.9-0.4V291.8    L186.3,291.8z"/></g><rect class="cam2" height="32.5" id="XMLID_182_" width="7.1" x="177.8" y="291.8"/><g><path class="cam1" d="M185.3,324.7h-7.5l-0.4-32.9l7.5-0.4L185.3,324.7L185.3,324.7z M184.5,291.8l-6.7,0.4l0.4,32.1l6.4-0.4V291.8    L184.5,291.8z"/></g><rect class="cam2" height="32.5" id="XMLID_179_" width="10.7" x="325.3" y="291.8"/><g><path class="cam1" d="M336.4,324.7h-11l-0.4-32.9l11-0.4L336.4,324.7L336.4,324.7z M335.6,291.8l-10.3,0.4l0.4,32.1l9.9-0.4V291.8    L335.6,291.8z"/></g><rect class="cam2" height="32.5" id="XMLID_176_" width="7.1" x="327.1" y="291.8"/><g><path class="cam1" d="M334.6,324.7h-7.5l-0.4-32.9l7.5-0.4L334.6,324.7L334.6,324.7z M333.8,291.8l-6.7,0.4l0.4,32.1l6.4-0.4V291.8    L333.8,291.8z"/></g><rect class="cam2" height="68.6" id="XMLID_173_" width="8.6" x="252.1" y="255.7"/><g><path class="cam1" d="M261,324.7h-9l-0.4-69l9-0.4L261,324.7L261,324.7z M260.2,255.7l-8.2,0.4l0.4,68.2l7.8-0.4V255.7L260.2,255.7    z"/></g><path class="cam2" d="M313.1,256l0.1-18.8c0,0,1.9,3.7,16.8,4.5c14.1-0.5,16.4-2.7,17-4.7l-0.6,19.1L313.1,256z" id="XMLID_170_"/><g><path class="cam1" d="M346.8,256.5l-33.7-0.1l-0.3-19.2l0-1.4l0.7,1.2c0,0,2.2,3.5,16.5,4.3c13.6-0.5,16.1-2.6,16.7-4.5l0.7,0.1    L346.8,256.5L346.8,256.5z M313.5,238.2l-0.1,17.9l32.6-0.3l0.5-17.2c-1.5,1.7-5.5,3.2-16.6,3.6C319,241.5,315,239.3,313.5,238.2    L313.5,238.2z"/></g><path class="cam2" d="M322.7,234l-4.6-3.7c1.5-1,4.4,0.7,4.4,0.7s1.5-4.2,8.1-6c6.6,1.8,8.1,6,8.1,6   s2.8-1.6,4.4-0.7l-4.6,3.7H322.7z" id="XMLID_167_"/><g><path class="cam1" d="M338.6,234.4h-15.9l-4.8-3.8c0.4-0.9,0.9-1,1.4-1c1.4,0,3,0.8,3.3,1c-0.2-0.4,1.5-4.3,7.9-6    c6.2,1.6,8.1,5.3,8.5,6.1c0.2-0.5,3-1.5,4.3-0.7L338.6,234.4L338.6,234.4z M319.3,230.4c-0.4,0-0.7,0.1-1,0.2l4.6,3.1l15.4-0.1    l4.1-3.3c-0.2,0-0.3,0-0.5,0c-1.4,0-3,0.9-3,0.9c-0.6-0.2-2.1-4.3-8.4-6c-6.1,1.7-7.6,5.8-7.7,5.8    C322.2,231.3,320.6,230.4,319.3,230.4L319.3,230.4z"/></g><path class="cam2" d="M320.3,243.6l-6-5.2c2-1.3,5.7,1,5.7,1s2-5.9,10.5-8.4c8.5,2.5,10.5,8.4,10.5,8.4   s3.7-2.3,5.7-1l-6,5.2H320.3z" id="XMLID_164_"/><g><path class="cam1" d="M340.9,244h-20.6l-6.2-5.3c0.5-0.9,1.1-1.1,1.8-1.1c1.9,0,4,1.2,4.3,1.4c-0.3-0.4,1.9-6,10.3-8.4    c8.2,2.3,10.6,7.6,10.9,8.5c0.2-0.6,3.9-2.1,5.6-1L340.9,244L340.9,244z M315.9,238.4c-0.5,0-1,0.1-1.3,0.4l6,4.6l20.1-0.1    l5.7-4.9c-0.3,0.2-0.7,0.1-1.1,0.1c-1.8,0-3.9,1.3-3.9,1.3c-0.6-0.3-2.6-6-10.8-8.4c-8,2.4-10,8.1-10.1,8.2    C319.8,239.7,317.7,238.4,315.9,238.4L315.9,238.4z"/></g><path class="cam2" d="M330.6,205.2c0.2,0,7.2,12.4,0,12.6C323.5,218,330.6,205.5,330.6,205.2L330.6,205.2z" id="XMLID_161_"/><g><path class="cam1" d="M330.5,218.2c-1.4,0-2.3-0.4-2.9-1.3c-1.7-2.7,1.2-8.8,2.3-11.1c0.2-0.4,0.3-0.6,0.3-0.7c0.1,0,0.2,0,0.4,0.1    l0.4,0c0,0.1,0,0.1-0.1,0.3c1.3,1.3,3.3,6.1,3.3,8.8c0,2.5-1.2,3.8-3.6,3.9H330.5L330.5,218.2z M330.7,205.9    c0,0.1-0.1,0.1-0.1,0.2c-0.9,2-3.9,8-2.4,10.3c0.4,0.7,1.1,1,2.2,1v0.4l0.1-0.4c1.3,0,2.1-0.5,2.6-1.4    C334.4,213.4,331.7,207.7,330.7,205.9L330.7,205.9z"/></g><path class="cam2" d="M324.6,221l-3.5-1.9c1.2-0.5,3.4,0.4,3.4,0.4s1.2-2.2,6.2-3.2c5,0.9,6.2,3.2,6.2,3.2   s2.2-0.9,3.4-0.4l-3.5,1.9H324.6z" id="XMLID_158_"/><g><path class="cam1" d="M336.8,221.3h-12.2l-4.4-2.4l0.7-0.3c1-0.4,3.2,0.2,3.6,0.3c-0.1-0.3,1.3-2.3,6.1-3.2    c4.7,0.9,6.2,2.7,6.6,3.2c0.1-0.3,2.2-0.8,3.3-0.4l0.7,0.3L336.8,221.3L336.8,221.3z M322.3,219.2l2.5,1.4l11.8,0l2.4-1.3    c-1,0.1-2,0.5-2,0.5c-0.5-0.2-1.7-2.3-6.4-3.1c-4.6,0.9-5.8,2.9-5.8,3C324.3,219.7,323.3,219.3,322.3,219.2L322.3,219.2z"/></g><path class="cam2" d="M327.6,222.5l-0.1-1.6c0,0,0.6-2.2,3.2-3.2c2.6,0.9,3.2,3.2,3.2,3.2l-0.1,1.6H327.6z" id="XMLID_155_"/><g><path class="cam1" d="M334.1,222.9h-6.6l-0.5-1.9c0-0.2,0.7-2.5,3.4-3.5c3,1,3.7,3.3,3.7,3.4L334.1,222.9L334.1,222.9z     M330.5,218.2c-2.1,0.8-2.7,2.8-2.7,2.9l0.1,1.5l5.5-0.3l0.1-1.2l0,0C333.5,220.9,332.9,219,330.5,218.2L330.5,218.2z"/></g><path class="cam2" d="M324.4,227.3l-0.2-2.1c0,0,1.2-3,6.4-4.2c5.2,1.2,6.4,4.2,6.4,4.2l-0.2,2.1H324.4z" id="XMLID_152_"/><g><path class="cam1" d="M337.2,227.7h-12.8l-0.5-2.5c0.1-0.3,1.4-3.3,6.7-4.6c5.5,1.3,6.8,4.3,6.8,4.4L337.2,227.7L337.2,227.7z     M330.6,221.3c-4.7,1.2-6,4-6,4l0.2,1.9l11.7-0.3l0.2-1.8h0C336.6,225.1,335.4,222.5,330.6,221.3L330.6,221.3z"/></g><path class="cam2" d="M324.4,230.4l-0.2-2.1c0,0,1.2-3,6.4-4.2c5.2,1.2,6.4,4.2,6.4,4.2l-0.2,2.1H324.4z" id="XMLID_149_"/><g><path class="cam1" d="M337.2,230.8h-12.8l-0.5-2.5c0.1-0.3,1.4-3.3,6.7-4.6c5.5,1.3,6.8,4.3,6.8,4.4L337.2,230.8L337.2,230.8z     M330.6,224.5c-4.7,1.2-6,4-6,4l0.2,1.9l11.7-0.3l0.2-1.8h0C336.6,228.3,335.4,225.6,330.6,224.5L330.6,224.5z"/></g><path class="cam2" d="M324.6,239.9l-3.5-5.2c1.2-1.3,3.4,1,3.4,1s1.2-5.9,6.2-8.4c5,2.5,6.2,8.4,6.2,8.4   s2.2-2.3,3.4-1l-3.5,5.2H324.6z" id="XMLID_146_"/><g><path class="cam1" d="M336.9,240.3h-12.3l-3.8-5.3c1-2.3,2.6-0.6,3.5,0c0.5-1.6,2-6,6.3-8.1c4.5,2.1,6.1,6.4,6.6,8.1    c0.8-0.7,2.6-1.5,3.4-0.5L336.9,240.3L336.9,240.3z M322,234.7c-0.3,0-0.5,0.1-0.6,0.3l3.6,4.7l11.6-0.2l3.4-4.9    c-0.1,0.2-0.3,0.1-0.6,0.1c-0.8,0-1.9,0.9-2.2,1.3l-0.5,0.5l-0.1-0.7c0-0.1-1.2-5.8-6-8.2c-4.5,2.4-5.7,8.1-5.7,8.2l-0.1,0.7    l-0.5-0.5C323.8,235.6,322.8,234.7,322,234.7L322,234.7z"/></g><path class="cam2" d="M324.6,246.2l-3.5-5.2c1.2-1.3,3.4,1,3.4,1s1.2-5.9,6.2-8.4c5,2.5,6.2,8.4,6.2,8.4   s2.2-2.3,3.4-1l-3.5,5.2H324.6z" id="XMLID_143_"/><g><path class="cam1" d="M336.9,246.6h-12.3l-3.8-5.3c1-2.3,2.6-0.6,3.5,0c0.5-1.6,2-6,6.3-8.1c4.5,2.1,6.1,6.4,6.6,8.1    c0.8-0.7,2.6-1.5,3.4-0.5L336.9,246.6L336.9,246.6z M322,241c-0.3,0-0.5,0.1-0.6,0.3l3.6,4.7l11.6-0.2l3.4-4.9    c-0.2,0.2-0.3,0.1-0.6,0.1c-0.8,0-1.8,0.9-2.2,1.3l-0.5,0.5l-0.1-0.7c0-0.1-1.2-5.8-6-8.2c-4.5,2.4-5.7,8.1-5.7,8.2l-0.1,0.7    l-0.5-0.5C323.8,241.9,322.8,241,322,241L322,241z"/></g><path class="cam2" d="M324.4,255.7l-0.2-5.3c0,0,1.2-7.4,6.4-10.5c5.2,3.1,6.4,10.5,6.4,10.5l-0.2,5.3H324.4z" id="XMLID_140_"/><g><path class="cam1" d="M337.3,256.1h-12.8l-0.6-5.6c0.1-0.4,1.3-7.7,6.6-10.9c5.7,3.2,6.9,10.5,7,10.8L337.3,256.1L337.3,256.1z     M330.5,240.2c-4.6,3-5.8,10.2-5.8,10.3l0.2,5.2l11.7-0.4l0.2-4.9C336.7,250.4,335.4,243.2,330.5,240.2L330.5,240.2z"/></g><path class="cam2" d="M324.6,255.7l-3.5-3.9c1.2-1,3.4,0.7,3.4,0.7s1.2-4.5,6.2-6.3c5,1.9,6.2,6.3,6.2,6.3   s2.2-1.7,3.4-0.7l-3.5,3.9H324.6z" id="XMLID_137_"/><g><path class="cam1" d="M336.9,256.1h-12.3l-3.8-4c0.3-0.8,0.7-0.9,1.2-0.9c0.8,0,1.7,0.5,2.3,0.8c0.5-1.3,2.1-4.5,6.3-6.1    c4.4,1.6,6.1,4.8,6.6,6.1c0.8-0.5,2.5-1.2,3.4-0.4L336.9,256.1L336.9,256.1z M322,251.9c-0.3,0-0.5,0.1-0.7,0.2l3.6,3.3l11.7-0.1    l3.1-3.4c-0.1,0-0.2,0-0.4,0c-0.8,0-1.9,0.7-2.2,1l-0.5,0.4l-0.1-0.6c0,0-1.2-4.3-6-6.1c-4.5,1.8-5.7,6-5.7,6.1l-0.1,0.6l-0.5-0.4    C324.2,252.9,323,251.9,322,251.9L322,251.9z"/></g><path class="cam2" d="M173.6,232.7L169,229c1.5-1,4.4,0.7,4.4,0.7s1.5-4.2,8.1-6c6.6,1.8,8.1,6,8.1,6   s2.8-1.6,4.4-0.7l-4.6,3.7H173.6z" id="XMLID_134_"/><g><path class="cam1" d="M189.5,233h-15.9l-4.8-3.8c0.4-0.8,0.9-1,1.4-1c1.4,0,3,0.8,3.3,1c-0.2-0.4,1.5-4.3,7.9-6    c6.2,1.6,8.1,5.3,8.5,6.1c0.2-0.5,3-1.5,4.3-0.7L189.5,233L189.5,233z M170.1,229c-0.4,0-0.7,0.1-1,0.2l4.6,3.1l15.4-0.1l4-3.3    c-0.2,0-0.3,0-0.5,0c-1.4,0-3,0.9-3,0.9c-0.6-0.2-2.1-4.3-8.4-6c-6.1,1.7-7.6,5.7-7.7,5.8C173.1,230,171.5,229,170.1,229    L170.1,229z"/></g><path class="cam2" d="M171.2,242.2l-6-5.2c2-1.3,5.7,1,5.7,1s2-5.9,10.5-8.4c8.5,2.5,10.5,8.4,10.5,8.4   s3.7-2.3,5.7-1l-6,5.2H171.2z" id="XMLID_131_"/><g><path class="cam1" d="M191.8,242.6h-20.6l-6.2-5.3c0.5-0.9,1.1-1.1,1.8-1.1c1.9,0,4,1.2,4.3,1.4c-0.3-0.4,1.9-6,10.3-8.4    c8.2,2.3,10.6,7.6,11,8.5c0.2-0.6,3.9-2.1,5.6-1L191.8,242.6L191.8,242.6z M166.8,237c-0.5,0-1,0.1-1.3,0.4l6,4.6l20.1-0.1    l5.7-4.9c-0.3,0.2-0.7,0.1-1.1,0.1c-1.8,0-3.9,1.3-3.9,1.3c-0.6-0.3-2.6-6-10.8-8.4c-8,2.4-10,8.1-10.1,8.2    C170.7,238.4,168.6,237,166.8,237L166.8,237z"/></g><path class="cam2" d="M165.2,256l0.1-18.8c0,0,1.9,3.7,16.8,4.5c14.1-0.5,16.4-2.7,17-4.7l-0.6,19.1L165.2,256z" id="XMLID_128_"/><g><path class="cam1" d="M198.9,256.5l-33.7-0.1l-0.3-19.2l0-1.4l0.7,1.2c0,0,2.2,3.5,16.5,4.3c13.6-0.5,16.1-2.6,16.7-4.5l0.7,0.1    L198.9,256.5L198.9,256.5z M165.7,238.2l-0.1,17.9l32.6-0.3l0.5-17.2c-1.5,1.7-5.5,3.2-16.6,3.6    C171.2,241.5,167.1,239.3,165.7,238.2L165.7,238.2z"/></g><path class="cam2" d="M181.3,205.2c0.2,0,7.2,12.4,0,12.6C174.2,218,181.3,205.5,181.3,205.2L181.3,205.2z" id="XMLID_125_"/><g><path class="cam1" d="M181.2,218.2c-1.4,0-2.3-0.4-2.9-1.3c-1.7-2.7,1.2-8.8,2.3-11.1c0.2-0.4,0.3-0.6,0.3-0.7c0.1,0,0.2,0,0.4,0.1    l0.4,0c0,0.1,0,0.1-0.1,0.3c1.3,1.3,3.3,6.1,3.3,8.8c0,2.5-1.2,3.8-3.6,3.9H181.2L181.2,218.2z M181.4,205.9    c0,0.1-0.1,0.1-0.1,0.2c-0.9,2-3.9,8-2.4,10.3c0.4,0.7,1.1,1,2.2,1v0.4l0.1-0.4c1.3,0,2.1-0.5,2.6-1.4    C185,213.4,182.4,207.7,181.4,205.9L181.4,205.9z"/></g><path class="cam2" d="M175.3,221l-3.5-1.9c1.2-0.5,3.4,0.4,3.4,0.4s1.2-2.2,6.2-3.2c5,0.9,6.2,3.2,6.2,3.2   s2.2-0.9,3.4-0.4l-3.5,1.9H175.3z" id="XMLID_122_"/><g><path class="cam1" d="M187.5,221.3h-12.2l-4.4-2.4l0.7-0.3c1-0.4,3.2,0.2,3.6,0.3c-0.1-0.3,1.3-2.3,6.1-3.2    c4.7,0.9,6.2,2.7,6.6,3.2c0.1-0.3,2.2-0.8,3.3-0.4l0.7,0.3L187.5,221.3L187.5,221.3z M172.9,219.2l2.5,1.4l11.9,0l2.4-1.3    c-1,0.1-2,0.5-2,0.5c-0.5-0.2-1.7-2.3-6.4-3.1c-4.6,0.9-5.8,2.9-5.8,3C175,219.7,173.9,219.3,172.9,219.2L172.9,219.2z"/></g><path class="cam2" d="M178.2,222.5l-0.1-1.6c0,0,0.6-2.2,3.2-3.2c2.6,0.9,3.2,3.2,3.2,3.2l-0.1,1.6H178.2z" id="XMLID_119_"/><g><path class="cam1" d="M184.8,222.9h-6.6l-0.5-1.9c0-0.2,0.7-2.5,3.4-3.5c3,1,3.7,3.3,3.7,3.4L184.8,222.9L184.8,222.9z     M181.2,218.2c-2.1,0.8-2.7,2.8-2.7,2.9l0.1,1.5l5.5-0.3l0.1-1.2l0,0C184.1,220.9,183.6,219,181.2,218.2L181.2,218.2z"/></g><path class="cam2" d="M175.1,227.3l-0.2-2.1c0,0,1.2-3,6.4-4.2c5.2,1.2,6.4,4.2,6.4,4.2l-0.2,2.1H175.1z" id="XMLID_116_"/><g><path class="cam1" d="M187.9,227.7h-12.8l-0.5-2.5c0.1-0.3,1.4-3.3,6.7-4.6c5.5,1.3,6.8,4.3,6.8,4.4L187.9,227.7L187.9,227.7z     M181.2,221.3c-4.7,1.2-6,4-6,4l0.2,1.9l11.7-0.3l0.2-1.8h0C187.3,225.1,186,222.5,181.2,221.3L181.2,221.3z"/></g><path class="cam2" d="M175.1,230.4l-0.2-2.1c0,0,1.2-3,6.4-4.2c5.2,1.2,6.4,4.2,6.4,4.2l-0.2,2.1H175.1z" id="XMLID_113_"/><g><path class="cam1" d="M187.9,230.8h-12.8l-0.5-2.5c0.1-0.3,1.4-3.3,6.7-4.6c5.5,1.3,6.8,4.3,6.8,4.4L187.9,230.8L187.9,230.8z     M181.2,224.5c-4.7,1.2-6,4-6,4l0.2,1.9l11.7-0.3l0.2-1.8h0C187.3,228.3,186,225.6,181.2,224.5L181.2,224.5z"/></g><path class="cam2" d="M175.3,239.9l-3.5-5.2c1.2-1.3,3.4,1,3.4,1s1.2-5.9,6.2-8.4c5,2.5,6.2,8.4,6.2,8.4   s2.2-2.3,3.4-1l-3.5,5.2H175.3z" id="XMLID_110_"/><g><path class="cam1" d="M187.6,240.3h-12.3l-3.8-5.3c0.9-2.3,2.6-0.6,3.5,0c0.5-1.6,2-6,6.3-8.1c4.5,2.1,6.1,6.4,6.6,8.1    c0.8-0.7,2.6-1.5,3.4-0.5L187.6,240.3L187.6,240.3z M172.6,234.7c-0.3,0-0.5,0.1-0.6,0.3l3.6,4.7l11.6-0.2l3.4-4.9    c-0.1,0.2-0.3,0.1-0.6,0.1c-0.8,0-1.8,0.9-2.2,1.3l-0.5,0.5l-0.1-0.7c0-0.1-1.2-5.8-6-8.2c-4.5,2.4-5.7,8.1-5.7,8.2l-0.1,0.7    l-0.5-0.5C174.5,235.6,173.4,234.7,172.6,234.7L172.6,234.7z"/></g><path class="cam2" d="M175.3,246.2l-3.5-5.2c1.2-1.3,3.4,1,3.4,1s1.2-5.9,6.2-8.4c5,2.5,6.2,8.4,6.2,8.4   s2.2-2.3,3.4-1l-3.5,5.2H175.3z" id="XMLID_107_"/><g><path class="cam1" d="M187.6,246.6h-12.3l-3.8-5.3c1-2.3,2.6-0.6,3.5,0c0.5-1.6,2-6,6.3-8.1c4.5,2.1,6.1,6.4,6.6,8.1    c0.8-0.7,2.6-1.5,3.4-0.5L187.6,246.6L187.6,246.6z M172.6,241c-0.3,0-0.5,0.1-0.6,0.3l3.6,4.7l11.6-0.2l3.4-4.9    c-0.1,0.2-0.3,0.1-0.6,0.1c-0.8,0-1.8,0.9-2.2,1.3l-0.5,0.5l-0.1-0.7c0-0.1-1.2-5.8-6-8.2c-4.5,2.4-5.7,8.1-5.7,8.2l-0.1,0.7    l-0.5-0.5C174.5,241.9,173.4,241,172.6,241L172.6,241z"/></g><path class="cam2" d="M175.1,255.7l-0.2-5.3c0,0,1.2-7.4,6.4-10.5c5.2,3.1,6.4,10.5,6.4,10.5l-0.2,5.3H175.1z" id="XMLID_104_"/><g><path class="cam1" d="M187.9,256.1h-12.8l-0.6-5.6c0.1-0.4,1.3-7.7,6.6-10.9c5.7,3.2,6.9,10.5,7,10.8L187.9,256.1L187.9,256.1z     M181.1,240.2c-4.6,3-5.8,10.2-5.8,10.3l0.2,5.2l11.7-0.4l0.2-4.9C187.4,250.4,186.1,243.2,181.1,240.2L181.1,240.2z"/></g><path class="cam2" d="M175.3,255.7l-3.5-3.9c1.2-1,3.4,0.7,3.4,0.7s1.2-4.5,6.2-6.3c5,1.9,6.2,6.3,6.2,6.3   s2.2-1.7,3.4-0.7l-3.5,3.9H175.3z" id="XMLID_101_"/><g><path class="cam1" d="M187.6,256.1h-12.3l-3.8-4c0.3-0.8,0.7-0.9,1.2-0.9c0.8,0,1.7,0.5,2.3,0.8c0.5-1.3,2.1-4.5,6.3-6.1    c4.4,1.6,6.1,4.8,6.6,6.1c0.8-0.5,2.5-1.2,3.4-0.4L187.6,256.1L187.6,256.1z M172.6,251.9c-0.3,0-0.5,0.1-0.7,0.2l3.6,3.3    l11.7-0.1l3.1-3.4c-0.1,0-0.2,0-0.4,0c-1,0-2.2,0.9-2.2,1l-0.5,0.4l-0.1-0.6c0,0-1.2-4.3-6-6.1c-4.5,1.8-5.7,6-5.7,6.1l-0.1,0.6    l-0.5-0.4C174.9,252.9,173.6,251.9,172.6,251.9L172.6,251.9z"/></g><path class="cam2" d="M234.3,247.2h43.4c2.1,0,3.9,1.7,3.9,3.9c0,2.1-1.7,3.9-3.9,3.9h-43.4c-2.1,0-3.9-1.7-3.9-3.9   C230.4,249,232.1,247.2,234.3,247.2L234.3,247.2z" id="XMLID_98_"/><g><path class="cam1" d="M277.7,255.4h-43.4c-2.4,0-4.3-1.9-4.3-4.3c0-2.4,1.9-4.3,4.3-4.3h43.4c2.4,0,4.3,1.9,4.3,4.3    C282,253.5,280.1,255.4,277.7,255.4L277.7,255.4z M234.3,247.6c-1.9,0-3.5,1.6-3.5,3.5c0,1.9,1.6,3.5,3.5,3.5h43.4    c1.9,0,3.5-1.6,3.5-3.5c0-1.9-1.6-3.5-3.5-3.5H234.3L234.3,247.6z"/></g><path class="cam2" d="M282.3,251.8l0.3-25.6c0,0-1,6.3-3.9,6.3h-45.4c-3,0-3.9-6.3-3.9-6.3l0.3,25.6H282.3z" id="XMLID_95_"/><g><path class="cam1" d="M282.7,252.2h-53.1l-0.7-26l0.8-0.1c0.3,1.7,1.4,6,3.6,6h45.4c2.2,0,3.3-4.3,3.6-6l0.8,0.1L282.7,252.2    L282.7,252.2z M229.8,229.2l0.3,22.6l51.9-0.4l0.3-22.2c-0.6,1.8-1.8,3.6-3.5,3.6h-45.4C231.5,232.9,230.4,231,229.8,229.2    L229.8,229.2z"/></g><path class="cam2" d="M272.3,240.2l0.1-8.4c0,0,5.7-1.5,4.9-3.7c-0.8-2.2-7.6,2.8-7.6,2.8h-27.3c0,0-6.8-5-7.6-2.8   c-0.8,2.2,4.9,3.7,4.9,3.7l0.1,8.4H272.3z" id="XMLID_92_"/><g><path class="cam1" d="M272.6,240.6h-32.9l-0.5-8.7c-0.1,0.2-3.9-0.8-4.8-2.5c-0.2-0.4-0.3-0.9-0.1-1.3c0.1-0.3,0.4-0.8,1.3-0.8    c2.2,0,6.7,3.3,6.9,3.4l27.1-0.1c0-0.1,4.5-3.3,6.7-3.3c0.9,0,1.2,0.5,1.3,0.8c0.2,0.4,0.1,0.9-0.1,1.3c-0.9,1.7-4.9,2.8-5,2.9    l0.2,8L272.6,240.6L272.6,240.6z M235.7,227.9c-0.4,0-0.5,0.2-0.6,0.3c-0.1,0.2-0.1,0.5,0.1,0.7c0.6,1.2,3.5,2.2,4.6,2.5l0.4,8.7    l31.8-0.4l0.1-8c1.3-0.6,4.2-1.6,4.8-2.9c0.1-0.3,0.2-0.5,0.1-0.7c-0.1-0.2-0.2-0.3-0.6-0.3c-1.6,0-5.2,2.3-6.4,3.3l-27.5,0.1    C240.9,230.3,237.3,227.9,235.7,227.9L235.7,227.9z"/></g><path class="cam2" d="M275.5,247.4l0.1-8.9c0,0,6.8-1,5.9-3.2c-0.9-2.2-9.1,2.8-9.1,2.8h-32.8c0,0-8.2-4.9-9.1-2.8   c-0.9,2.2,5.9,3.2,5.9,3.2l0.1,8.9H275.5z" id="XMLID_89_"/><g><path class="cam1" d="M275.9,247.8h-39.4l-0.5-9.2c-0.2,0.2-4.8-0.5-5.8-2.2c-0.2-0.4-0.2-0.8-0.1-1.2c0.2-0.4,0.5-0.8,1.5-0.8    c2.6,0,8,3.2,8.2,3.4l32.6-0.1c0-0.1,5.4-3.3,8-3.3c0.9,0,1.3,0.4,1.5,0.8c0.2,0.4,0.2,0.8-0.1,1.2c-0.9,1.7-5.6,2.4-6.1,2.5    l0.2,8.5L275.9,247.8L275.9,247.8z M231.6,235.2c-0.6,0-0.8,0.2-0.8,0.3c0.7,1.7,4.2,2.5,5.6,2.7l0.4,9.2l38.3-0.4l0.1-8.5    c1.6-0.6,5.2-1.4,5.9-2.5c0-3-8.5,2.3-8.6,2.4l-32.9,0.1C239.4,238.4,234,235.2,231.6,235.2L231.6,235.2z"/></g><path class="cam2" d="M260.8,202.3l0-3.5c-4,0-3-3.8-3-5.3c1.2-1.5,1.5-4.3-1.8-5.8c-3.2,1.7-3,4.3-1.8,5.7   c0,1.6,1.3,5.4-3.1,5.4l0,3.5H260.8z" id="XMLID_86_"/><g><path class="cam1" d="M261.1,202.7h-9.9l-0.4-3.9c1.5-0.4,2.3-0.6,2.7-1.1c0.7-0.8,0.6-2.2,0.4-3.3c0-0.4-0.1-0.7-0.1-1    c-0.6-0.6-1-1.8-0.7-2.9c0.2-0.9,0.8-2.2,2.7-3.2c2.2,0.8,2.8,2.1,3.1,2.9c0.3,1.2,0,2.5-0.8,3.4c0,0,0.1,0.2,0,0.6    c-0.1,1.1-0.2,2.6,0.6,3.4c0.4,0.5,1.1,0.7,2.1,0.7l0.3,3.9L261.1,202.7L261.1,202.7z M255.8,188c-1,0.7-1.8,1.6-2,2.6    c-0.2,0.9,0.1,1.8,0.7,2.5c0.1,0.5,0.1,0.8,0.2,1.1c0.1,1.2,0.3,2.8-0.6,3.9c-0.6,0.7-1.6,1-2.9,1l0.4,3.1l8.8-0.4l0-3.2    c-0.8,0.4-1.7,0.1-2.3-0.6c-1-1.1-0.9-2.8-0.8-4l0-0.7c0.6-0.9,1-1.9,0.8-3C257.9,189.4,257.1,188.6,255.8,188L255.8,188z"/></g><path class="cam2" d="M267.5,225.3l0.1-6.8c0,0,4-1.3,3.5-3.1c-0.6-1.8-5.4,2.3-5.4,2.3h-19.3c0,0-4.8-4.1-5.4-2.3   c-0.6,1.8,3.5,3.1,3.5,3.1l0.1,6.8H267.5z" id="XMLID_83_"/><g><path class="cam1" d="M267.9,225.6h-23.4l-0.5-7.1c-0.2,0.2-4.1-1.2-3.4-3.3c0.1-0.5,0.5-0.7,1-0.7c1.6,0,4.6,2.5,5,2.8l19.1-0.1    c0.1-0.2,3.1-2.7,4.7-2.7c0.5,0,0.9,0.3,1,0.7c0.6,2.1-3.3,3.5-3.7,3.6l0.2,6.4L267.9,225.6L267.9,225.6z M241.6,215.3    c-0.7,1.4,2,2.5,2.9,2.9l0.3,7.1l22.3-0.4l0.1-6.4c1.2-0.7,3.8-1.8,3.5-3c-1.4-0.3-3.9,1.7-4.8,2.4l-19.6,0.1    C245.2,217.2,242.7,215.3,241.6,215.3L241.6,215.3z"/></g><path class="cam2" d="M269.8,231.2l0.1-7.2c0,0,4.8-0.8,4.2-2.6c-0.7-1.8-6.5,2.3-6.5,2.3h-23.2c0,0-5.8-4.1-6.5-2.3   c-0.7,1.8,4.2,2.6,4.2,2.6l0.1,7.2H269.8z" id="XMLID_80_"/><g><path class="cam1" d="M270.2,231.5h-28l-0.5-7.6c0,0.3-3.3-0.3-4-1.7c-0.2-0.4-0.2-0.7-0.1-1.1c0.1-0.3,0.4-0.7,1.2-0.7    c1.9,0,5.7,2.7,5.9,2.8l23-0.1c-0.1,0,3.8-2.7,5.7-2.7c0.8,0,1.1,0.4,1.2,0.7c0.1,0.4,0.1,0.8-0.1,1.1c-0.8,1.4-4,2-4.3,2l0.2,6.9    L270.2,231.5L270.2,231.5z M238.7,221.2l-0.4,0.7c0.5,0.8,2.6,1.4,3.8,1.7l0.4,7.6l26.9-0.4l0.1-6.9c1.2-0.5,3.6-1.1,4.1-2    l-0.4-0.7c-1.4,0-4.4,1.9-5.5,2.6l-23.4,0.1C243.1,223.1,240.1,221.2,238.7,221.2L238.7,221.2z"/></g><path class="cam2" d="M263.5,214.5l0-4.4c0,0,2.6-1.1,2.2-2.3c-0.4-1.2-3.5,1.5-3.5,1.5h-12.5c0,0-3.1-2.8-3.5-1.5   c-0.4,1.2,2.2,2.3,2.2,2.3l0,4.4H263.5z" id="XMLID_77_"/><g><path class="cam1" d="M263.8,214.9h-15.3l-0.4-4.8c-0.1,0.2-2.7-0.9-2.2-2.4l0.1-0.3l0.7-0.3c1,0,2.9,1.6,3.3,1.9l12.3-0.1    c0.1-0.2,2-1.8,3.1-1.8h0.3l0.5,0.6c0.4,1.5-2.2,2.6-2.5,2.7l0.2,4.1L263.8,214.9L263.8,214.9z M246.7,207.9    c-0.3,0.7,1.2,1.6,1.9,1.9l0.3,4.8l14.2-0.4l0-4.1c1-0.6,2.5-1.5,2.3-2.2c-0.4,0.1-2,1-2.9,1.7l-12.8,0.1    C248.7,208.9,247.3,207.9,246.7,207.9L246.7,207.9z"/></g><path class="cam2" d="M265,218.5l0.1-4.4c0,0,3.1-1.1,2.7-2.3c-0.4-1.2-4.2,1.5-4.2,1.5h-15c0,0-3.8-2.8-4.2-1.5   c-0.4,1.2,2.7,2.3,2.7,2.3l0.1,4.4H265z" id="XMLID_74_"/><g><path class="cam1" d="M265.3,218.9H247l-0.4-4.8c0,0.3-2.1-0.5-2.6-1.6l-0.1-0.1l0-0.7c0.1-0.2,0.3-0.6,0.9-0.6    c1.2,0,3.6,1.7,3.9,1.9l14.8-0.1c0-0.1,2.4-1.8,3.7-1.8h0.3l0.6,0.6c0.1,0.3,0.1,0.6-0.1,0.9c-0.5,1.1-2.6,1.8-2.9,1.9l0.2,4.1    L265.3,218.9L265.3,218.9z M244.8,211.9c0.2,0.9,1.5,1.6,2.3,1.9l0.3,4.8l17.1-0.4l0-4.1c1-0.6,2.4-1.3,2.7-1.9    c-0.9-0.4-2.6,0.7-3.6,1.4l-15.2,0.1C247.3,213,245.6,211.9,244.8,211.9L244.8,211.9z"/></g><path class="cam2" d="M261.3,206.7l0-4c0,0,1.8-1,1.6-2c-0.3-1-2.5,1.3-2.5,1.3h-8.9c0,0-2.2-2.3-2.5-1.3   c-0.3,1,1.6,2,1.6,2l0,3.5L261.3,206.7z" id="XMLID_71_"/><g><path class="cam1" d="M261.7,207.1l-11-0.5l-0.4-3.9c0,0.2-1.9-0.8-1.6-2.1l0.1-0.3l0.6-0.3c0.8,0,2.1,1.2,2.4,1.6l8.6-0.1    c0.1-0.3,1.4-1.5,2.2-1.5h0.3l0.4,0.5c0.3,1.2-1.6,2.3-1.8,2.4l0.2,3.7L261.7,207.1L261.7,207.1z M249.4,200.8    c-0.1,0.5,1,1.3,1.5,1.5l0.2,3.8l9.8,0.1l0-3.6c0.7-0.6,1.7-1.3,1.6-1.9c-0.3,0-1.2,0.8-1.8,1.4l-9.1,0.1    C250.6,201.6,249.7,200.8,249.4,200.8L249.4,200.8z"/></g><path class="cam2" d="M262.3,209.5l0-3.5c0,0,2.2-1,1.9-2c-0.3-1-3,1.3-3,1.3h-10.6c0,0-2.7-2.3-3-1.3   c-0.3,1,1.9,2,1.9,2l0,3.5H262.3z" id="XMLID_68_"/><g><path class="cam1" d="M262.7,209.9h-13l-0.4-3.9c-0.2,0.1-2.3-0.8-1.9-2.1l0.1-0.3l0.6-0.3c0.9,0,2.5,1.3,2.8,1.6l10.4-0.1    c0.1-0.2,1.7-1.5,2.6-1.5h0.3l0.5,0.5c0.4,1.3-1.7,2.2-2.1,2.4l0.2,3.2L262.7,209.9L262.7,209.9z M248.1,204.1    c-0.1,0.4,0.9,1.2,1.7,1.5l0.3,3.9l11.9-0.4l0-3.2c1-0.7,2.1-1.4,1.9-1.9c-0.5,0-1.7,0.8-2.4,1.4l-10.9,0.1    C249.7,205,248.6,204.1,248.1,204.1L248.1,204.1z"/></g><path class="cam2" d="M252.6,209.7l-2-2.2c0.7-0.6,1.9,0.4,1.9,0.4s0.7-2.5,3.5-3.6c2.8,1.1,3.5,3.6,3.5,3.6   s1.2-1,1.9-0.4l-2,2.2H252.6z" id="XMLID_65_"/><g><path class="cam1" d="M259.5,210.1h-6.9l-2.8-3l1.3-0.2c0.4,0,0.9,0.2,1.2,0.4c0.3-0.8,1.3-2.5,3.5-3.4c2.4,0.8,3.4,2.5,3.8,3.4    c0.3-0.2,0.8-0.4,1.2-0.4l0.8,0.3L259.5,210.1L259.5,210.1z M251.2,207.7l1.7,1.8l6.3-0.1l1.9-2.1c-0.6,0.5-1.2,0.8-1.4,1    l-0.5,0.4l-0.2-0.6c0-0.1-0.6-2.4-3.2-3.4c-2.3,1-2.9,3.3-3,3.4l-0.2,0.6l-0.5-0.4C252.1,208,251.6,207.7,251.2,207.7L251.2,207.7    z"/></g><path class="cam2" d="M251.3,213.3l-2.7-2.2c0.9-0.6,2.6,0.4,2.6,0.4s0.9-2.5,4.8-3.6c3.9,1.1,4.8,3.6,4.8,3.6   s1.7-1,2.6-0.4l-2.8,2.2H251.3z" id="XMLID_62_"/><g><path class="cam1" d="M260.8,213.7h-9.6l-3-2.3c0.3-0.8,0.6-0.8,0.9-0.8c0.8,0,1.7,0.4,2,0.6c-0.2-0.4,1-2.6,4.7-3.6    c3.6,0.9,4.9,2.9,5.2,3.6c0.2-0.4,1.8-0.8,2.6-0.4L260.8,213.7L260.8,213.7z M249.4,211.3l2.1,1.7l9.1-0.1l2-1.6    c-0.7,0.1-1.6,0.5-1.6,0.5c-0.6-0.3-1.5-2.6-5.1-3.6c-3.5,1-4.4,3.3-4.4,3.4C251,211.8,250.1,211.3,249.4,211.3L249.4,211.3z"/></g><path class="cam2" d="M250.6,219.6l-3.1-3c1.1-0.8,3,0.5,3,0.5s1.1-3.4,5.5-4.8c4.5,1.4,5.5,4.8,5.5,4.8   s1.9-1.3,3-0.5l-3.1,3H250.6z" id="XMLID_59_"/><g><path class="cam1" d="M261.5,220h-10.9l-3.4-3.1c0.3-0.8,0.7-0.9,1.1-0.9c0.9,0,2,0.6,2.3,0.8c-0.2-0.5,1.1-3.5,5.3-4.8    c4.1,1.3,5.6,4,5.9,4.8c0.2-0.5,2.1-1.1,3-0.5L261.5,220L261.5,220z M248.3,216.8c-0.2,0-0.4,0.1-0.6,0.2l3.2,2.4l10.4-0.1    l2.6-2.4c-0.6,0-1.8,0.5-2.1,0.7c-0.6-0.2-1.6-3.4-5.9-4.8c-4,1.3-5.1,4.5-5.1,4.6C250.2,217.5,249.2,216.8,248.3,216.8    L248.3,216.8z"/></g><path class="cam2" d="M249.3,227.4l-3.9-3.7c1.3-1,3.7,0.7,3.7,0.7s1.3-4.2,6.9-6c5.6,1.8,6.9,6,6.9,6   s2.4-1.6,3.7-0.7l-3.9,3.7H249.3z" id="XMLID_56_"/><g><path class="cam1" d="M262.9,227.7h-13.6l-4.2-3.8c0.4-0.8,0.8-1,1.3-1c1.2,0,2.5,0.8,2.9,1c-0.2-0.5,1.3-4.3,6.7-6    c5.3,1.6,7,5.1,7.3,6c0.3-0.5,2.6-1.5,3.7-0.6L262.9,227.7L262.9,227.7z M246.4,223.7c-0.3,0-0.6,0.1-0.8,0.2l4,3.1l13.1-0.1    l3.4-3.3c-0.1,0-0.2,0-0.4,0c-1.1,0-2.5,0.9-2.5,0.9c-0.6-0.2-1.9-4.3-7.2-6c-5.1,1.7-6.4,5.7-6.4,5.8    C248.8,224.6,247.5,223.7,246.4,223.7L246.4,223.7z"/></g><polygon class="cam2" id="XMLID_53_" points="248.3,233.8 255.8,243.1 263.7,233.8  "/><g><path class="cam1" d="M255.8,243.7l-8.3-10.3h17L255.8,243.7L255.8,243.7z M249.1,234.1l6.7,8.4l7.1-8.4H249.1L249.1,234.1z"/></g><path class="cam2" d="M247.9,234.8l-4.7-4.1c1.6-1.1,4.5,0.8,4.5,0.8s1.6-4.7,8.3-6.7c6.7,2,8.3,6.7,8.3,6.7   s2.9-1.8,4.5-0.8l-4.7,4.1H247.9z" id="XMLID_50_"/><g><path class="cam1" d="M264.2,235.2h-16.3l-5-4.2c0.4-0.9,0.9-1,1.5-1c1.5,0,3.1,0.9,3.4,1.1c-0.3-0.4,1.6-4.8,8.1-6.7    c6.4,1.8,8.3,5.9,8.7,6.8c0.2-0.6,3.1-1.7,4.4-0.8L264.2,235.2L264.2,235.2z M244.4,230.7c-0.4,0-0.7,0.1-1,0.3l4.8,3.5l15.8-0.1    l4.3-3.7c-0.2,0-0.4,0-0.6,0c-1.4,0-3.1,1-3.1,1c-0.6-0.2-2.2-4.8-8.6-6.7c-6.2,1.9-7.8,6.4-7.8,6.5    C247.4,231.8,245.8,230.7,244.4,230.7L244.4,230.7z"/></g><polygon class="cam2" id="XMLID_47_" points="247.7,244 255.8,255.7 264.3,244  "/><g><path class="cam1" d="M255.8,256.4l-8.8-12.7h18.2L255.8,256.4L255.8,256.4z M248.4,244.4l7.4,10.7l7.8-10.7H248.4L248.4,244.4z"/></g><path class="cam2" d="M247.2,245.3l-5.1-5.2c1.7-1.3,4.9,1,4.9,1s1.7-5.9,9-8.4c7.3,2.5,9,8.4,9,8.4s3.2-2.3,4.9-1   l-5.1,5.2H247.2z" id="XMLID_44_"/><g><path class="cam1" d="M264.9,245.7h-17.7l-5.4-5.3c0.5-0.9,1-1.1,1.6-1.1c1.3,0,2.7,0.8,3.3,1.2c0.6-1.5,2.8-6.1,9.1-8.2    c6.5,2.1,8.7,6.7,9.3,8.2c1-0.6,3.6-1.7,4.9-0.7L264.9,245.7L264.9,245.7z M243.5,240.1c-0.4,0-0.8,0.1-1.1,0.3l5.1,4.6l17.1-0.1    l4.9-4.9c-0.2,0.2-0.6,0.1-0.9,0.1c-1.5,0-3.3,1.3-3.3,1.3l-0.4,0.3l-0.2-0.5c0-0.1-1.8-5.8-8.8-8.2c-6.8,2.4-8.5,8.1-8.5,8.2    l-0.2,0.5l-0.4-0.3C246.8,241.4,245,240.1,243.5,240.1L243.5,240.1z"/></g><path class="cam2" d="M247.2,255.7l-5.1-5.2c1.7-1.3,4.9,1,4.9,1s1.7-5.9,9-8.4c7.3,2.5,9,8.4,9,8.4s3.2-2.3,4.9-1   l-5.1,5.2H247.2z" id="XMLID_41_"/><g><path class="cam1" d="M264.9,256.1h-17.7l-5.4-5.3c0.5-0.9,1-1.1,1.6-1.1c1.3,0,2.7,0.7,3.3,1.2c0.6-1.5,2.8-6.1,9.1-8.2    c6.5,2.1,8.7,6.7,9.3,8.2c1-0.6,3.6-1.7,4.9-0.7L264.9,256.1L264.9,256.1z M243.5,250.5c-0.4,0-0.8,0.1-1.1,0.3l5.1,4.6l17.1-0.1    l4.9-4.9c-0.2,0.2-0.6,0.1-0.9,0.1c-1.5,0-3.3,1.3-3.3,1.3l-0.4,0.3l-0.2-0.5c0-0.1-1.8-5.8-8.8-8.2c-6.8,2.4-8.5,8.1-8.5,8.2    l-0.1,0.5l-0.4-0.3C246.8,251.8,245,250.5,243.5,250.5L243.5,250.5z"/></g><rect class="cam2" height="16.2" id="XMLID_38_" width="3.8" x="203.8" y="270.1"/><g><path class="cam1" d="M207.9,286.7h-4.1l-0.4-16.6l4.1-0.4L207.9,286.7L207.9,286.7z M207.2,270.1l-3.4,0.4l0.4,15.9l3-0.3V270.1    L207.2,270.1z"/></g><rect class="cam2" height="16.2" id="XMLID_35_" width="3.8" x="216.6" y="270.1"/><g><path class="cam1" d="M220.7,286.7h-4.1l-0.4-16.6l4.1-0.4L220.7,286.7L220.7,286.7z M220,270.1l-3.4,0.4l0.4,15.9l3-0.3V270.1    L220,270.1z"/></g><rect class="cam2" height="16.2" id="XMLID_32_" width="3.8" x="210.6" y="270.1"/><g><path class="cam1" d="M214.7,286.7h-4.1l-0.4-16.6l4.1-0.4L214.7,286.7L214.7,286.7z M214,270.1l-3.4,0.4l0.4,15.9l3-0.3V270.1    L214,270.1z"/></g><rect class="cam2" height="16.3" id="XMLID_29_" width="3.8" x="278.9" y="270.1"/><g><path class="cam1" d="M283.1,286.7h-4.1l-0.4-16.6l4.1-0.4L283.1,286.7L283.1,286.7z M282.3,270.1l-3.4,0.4l0.4,15.9l3-0.3V270.1    L282.3,270.1z"/></g><rect class="cam2" height="16.2" id="XMLID_26_" width="3.8" x="304.5" y="270.1"/><g><path class="cam1" d="M308.7,286.7h-4.1l-0.4-16.6l4.1-0.4L308.7,286.7L308.7,286.7z M307.9,270.1l-3.4,0.4l0.4,15.9l3-0.3V270.1    L307.9,270.1z"/></g><rect class="cam2" height="16.2" id="XMLID_23_" width="3.8" x="291.7" y="270.1"/><g><path class="cam1" d="M295.9,286.7h-4.1l-0.4-16.6l4.1-0.4L295.9,286.7L295.9,286.7z M295.1,270.1l-3.4,0.4l0.4,15.9l3-0.3V270.1    L295.1,270.1z"/></g><rect class="cam2" height="16.2" id="XMLID_20_" width="3.8" x="285.7" y="270.1"/><g><path class="cam1" d="M289.8,286.7h-4.1l-0.4-16.6l4.1-0.4L289.8,286.7L289.8,286.7z M289.1,270.1l-3.4,0.4l0.4,15.9l3-0.3V270.1    L289.1,270.1z"/></g><rect class="cam2" height="16.2" id="XMLID_17_" width="3.8" x="297.7" y="270.1"/><g><path class="cam1" d="M301.9,286.7h-4.1l-0.4-16.6l4.1-0.4L301.9,286.7L301.9,286.7z M301.1,270.1l-3.4,0.4l0.4,15.9l3-0.3V270.1    L301.1,270.1z"/></g><rect class="cam2" height="16.3" id="XMLID_14_" width="3.8" x="229.4" y="270.1"/><g><path class="cam1" d="M233.5,286.7h-4.1l-0.4-16.6l4.1-0.4L233.5,286.7L233.5,286.7z M232.8,270.1l-3.4,0.4l0.4,15.9l3-0.3V270.1    L232.8,270.1z"/></g><rect class="cam2" height="16.2" id="XMLID_11_" width="3.8" x="222.6" y="270.1"/><g><path class="cam1" d="M226.8,286.7h-4.1l-0.4-16.6l4.1-0.4L226.8,286.7L226.8,286.7z M226,270.1l-3.4,0.4l0.4,15.9l3-0.3V270.1    L226,270.1z"/></g><rect class="cam2" height="3" id="XMLID_8_" width="7.8" x="252.1" y="195.9"/><g><path class="cam1" d="M260.3,199.2h-8.2l-0.4-3.3l8.2-0.4L260.3,199.2L260.3,199.2z M259.5,195.9l-7.4,0.4l0.4,2.6l7.1-0.4V195.9    L259.5,195.9z"/></g><rect class="cam2" height="2.8" id="XMLID_5_" width="5.8" x="253.1" y="193"/><g><path class="cam1" d="M259.2,196.2h-6.1l-0.4-3.2l6.1-0.4L259.2,196.2L259.2,196.2z M258.5,193l-5.4,0.4l0.4,2.5l5-0.3V193    L258.5,193z"/></g></g></svg>