<svg xmlns="http://www.w3.org/2000/svg" width="150" height="36" viewBox="0 0 150 36">
    <g fill="#FFF" fill-rule="evenodd">
        <path d="M0 6.156V4.949c0-1.271.326-2.263.977-2.976.65-.713 1.552-1.07 2.703-1.07 1.15 0 2.074.357 2.77 1.07.49.502.736 1.257.736 2.263h-1.74c0-1.088-.567-1.632-1.7-1.632-.338 0-.626.066-.863.198a1.505 1.505 0 0 0-.528.46c-.116.174-.205.43-.268.768a6.159 6.159 0 0 0-.107.85c-.009.23-.013.535-.013.92 0 .383.002.642.007.774.004.133.017.348.04.645.022.298.058.51.107.638.049.128.12.293.214.493.094.202.212.344.355.426.365.238.78.357 1.244.357.776 0 1.325-.338 1.646-1.015v-.659H4.43v-1.59h2.742v2.948c-.276.668-.714 1.17-1.311 1.509-.598.338-1.276.507-2.034.507-1.347 0-2.322-.386-2.924-1.159C.301 8.902 0 7.73 0 6.156zM11.212 10.369l-1.797.013V.452h1.797zM17.58 7.106v-.712c0-.676-.094-1.192-.281-1.549-.187-.356-.577-.534-1.17-.534-.959 0-1.438.676-1.438 2.028v.712c0 1.452.48 2.179 1.438 2.179.619 0 1.024-.242 1.216-.727.157-.383.235-.849.235-1.397m1.7-.41c0 1.69-.306 2.821-.916 3.397-.514.493-1.259.74-2.235.74-1.246 0-2.087-.384-2.523-1.15-.41-.704-.614-1.7-.614-2.988 0-1.206.205-2.15.614-2.836.453-.768 1.279-1.15 2.477-1.15 1.199 0 2.03.334 2.497 1.006.466.671.7 1.665.7 2.98M23.248 8.905h.865c.974 0 1.46-.77 1.46-2.308 0-.783-.074-1.328-.222-1.635-.15-.308-.472-.462-.967-.462l-1.582.83v2.968c0 .352.149.554.446.607m1.379 1.477l-1.528-.014c-.676 0-1.187-.193-1.534-.58a2.003 2.003 0 0 1-.52-1.384V.45h1.757v3.324l2.096-.95c.802 0 1.392.211 1.77.633.334.378.542.99.623 1.833.027.352.04.788.04 1.306 0 2.523-.901 3.785-2.704 3.785M33.177 7.899v-3.54h-1.361c-.505 0-.856.185-1.053.555-.197.37-.296.923-.296 1.657 0 .736.094 1.253.282 1.553.188.299.544.448 1.067.448l1.361-.673zm1.79 2.403h-1.198l-.55-.91-1.913.99c-1.063 0-1.779-.37-2.146-1.11-.183-.36-.31-.75-.378-1.168a8.054 8.054 0 0 1-.103-1.308c0-.454.004-.788.013-1.004.01-.215.032-.467.07-.753.036-.285.089-.526.158-.72.068-.193.167-.393.295-.6.129-.207.285-.372.468-.496.413-.272.95-.409 1.61-.409h1.884l1.79-.106v7.594zM38.992 10.369l-1.796.013V.452h1.796zM50.025 7.3c.05-.36.074-.92.074-1.684 0-.763-.025-1.316-.074-1.657-.049-.342-.158-.615-.327-.82-.32-.39-.783-.585-1.39-.585H46.64v5.245c0 .355.12.6.36.732.24.133.67.2 1.289.2.619 0 1.089-.195 1.41-.586.168-.204.277-.486.326-.845m1.93-1.698l.013 1.026c-.035.647-.115 1.194-.24 1.637a2.75 2.75 0 0 1-.735 1.211c-.605.604-1.487.906-2.644.906-1.362 0-2.297-.18-2.805-.54-.507-.359-.761-1.008-.761-1.95V.903h3.7c1.068 0 1.905.303 2.51.906.49.489.78 1.083.868 1.784.063.497.094 1.167.094 2.01M54.317 10.833h1.547V3.282h-1.547v7.551zM55.102 0c.373 0 .615.067.726.2.11.132.166.411.166.837 0 .425-.057.705-.172.837-.115.133-.357.2-.726.2s-.61-.069-.726-.207c-.114-.137-.172-.416-.172-.837s.058-.698.172-.83c.115-.133.36-.2.732-.2zM62.274 7.28V4.375h-1.362c-.514 0-.867.168-1.06.506-.192.338-.288.809-.288 1.413s.098 1.033.295 1.287c.197.253.548.38 1.053.38l1.362-.68zm0-4.465l1.788-.107v7.319c0 .844-.245 1.49-.736 1.939-.49.449-1.217.673-2.18.673-.743 0-1.394-.142-1.954-.427a1.655 1.655 0 0 1-.702-.639c-.174-.285-.261-.623-.261-1.013l1.665-.08c0 .248.091.426.275.533.183.107.497.16.942.16.445 0 .748-.107.908-.32.16-.213.24-.52.24-.92l.07-1.146-1.926 1c-1.055 0-1.766-.347-2.133-1.04-.33-.613-.495-1.364-.495-2.253 0-1.058.083-1.804.248-2.24.174-.48.421-.826.743-1.04.412-.266.953-.399 1.623-.399h1.885zM66.41 10.833h1.548V3.282H66.41v7.551zM67.197 0c.373 0 .615.067.726.2.11.132.166.411.166.837 0 .425-.057.705-.172.837-.115.133-.357.2-.726.2s-.61-.069-.726-.207c-.115-.137-.172-.416-.172-.837s.057-.698.172-.83c.115-.133.36-.2.732-.2zM74.36 10.833h-1.14c-.696 0-1.224-.2-1.585-.602a2.072 2.072 0 0 1-.542-1.436V4.692h-.775V3.338h.775V1.806h1.83v1.532h1.296v1.354h-1.296v3.994c0 .428.211.643.634.643h.803v1.504zM79.74 7.899v-3.54H78.38c-.505 0-.856.185-1.053.555-.197.37-.295.923-.295 1.657 0 .736.093 1.253.282 1.553.187.299.543.448 1.066.448L79.74 7.9zm1.79 2.403h-1.198l-.55-.91-1.912.99c-1.064 0-1.78-.37-2.146-1.11-.184-.36-.31-.75-.379-1.168a8.054 8.054 0 0 1-.103-1.308c0-.454.005-.788.014-1.004.009-.215.032-.467.069-.753a3.52 3.52 0 0 1 .158-.72c.069-.193.167-.393.296-.6.128-.207.284-.372.467-.496.413-.272.95-.409 1.61-.409h1.885l1.789-.106v7.594zM85.556 10.369l-1.797.013V.452h1.797z"/>
        <g>
            <path d="M11.692 35H6.046c-2.131 0-3.672-.402-4.621-1.206C.475 32.99 0 31.679 0 29.864V16.527h3.702v13.335c0 .726.168 1.229.506 1.505.337.276.95.415 1.838.415h5.646V35zM16.618 35h3.597V16.528h-3.597zM36.034 29.5c0-.83-.153-1.457-.459-1.881-.306-.424-.855-.636-1.648-.636h-4.322v2.906c0 .71.184 1.202.554 1.479.368.276.976.415 1.823.415h1.945c1.405 0 2.107-.76 2.107-2.283zm-2.35-5.76c1.387 0 2.08-.665 2.08-1.998 0-1.331-.693-1.997-2.08-1.997h-4.08v3.995h4.08zm6.106 5.942c0 1.712-.482 3.027-1.446 3.943-.963.917-2.31 1.375-4.038 1.375h-2.594c-2.125 0-3.633-.354-4.525-1.064-.892-.709-1.337-1.937-1.337-3.683V16.528h8.131c1.837 0 3.22.44 4.147 1.323.928.882 1.392 2.127 1.392 3.736 0 .934-.248 1.73-.743 2.387-.496.657-1.04 1.124-1.635 1.4 1.765.796 2.648 2.232 2.648 4.308zM53.458 24.35c.507-.528.76-1.184.76-1.972 0-.787-.245-1.422-.734-1.907-.49-.484-1.144-.726-1.962-.726H49.68c-1.104 0-1.655.544-1.655 1.634v3.762h3.497c.783 0 1.428-.263 1.936-.791zM58.703 35h-4.298l-3.71-6.85h-2.67V35h-3.711V20.497c0-1.384.329-2.391.988-3.022.658-.631 1.762-.947 3.31-.947h3.15c1.887 0 3.386.557 4.499 1.673 1.112 1.116 1.668 2.53 1.668 4.242 0 1.245-.333 2.322-1 3.23-.668.908-1.492 1.535-2.47 1.881L58.703 35zM71.342 28.773l-2.236-7.316-2.343 7.316h4.58zM77.12 35h-3.86l-1.066-3.19h-6.363L64.792 35h-3.86l6.07-16.916c.266-.588.563-.994.892-1.22.328-.224.732-.336 1.212-.336.479 0 .865.103 1.158.311.293.207.554.623.785 1.245L77.12 35zM88.498 24.35c.508-.528.761-1.184.761-1.972 0-.787-.245-1.422-.734-1.907-.49-.484-1.144-.726-1.962-.726H84.72c-1.104 0-1.655.544-1.655 1.634v3.762h3.497c.783 0 1.428-.263 1.935-.791zM93.744 35h-4.298l-3.71-6.85h-2.67V35h-3.711V20.497c0-1.384.329-2.391.988-3.022.658-.631 1.761-.947 3.31-.947h3.15c1.886 0 3.386.557 4.499 1.673 1.112 1.116 1.668 2.53 1.668 4.242 0 1.245-.334 2.322-1.001 3.23-.667.908-1.491 1.535-2.47 1.881L93.744 35zM109.861 16.528l-5.78 10.897V35h-3.728v-7.575l-5.78-10.897h4.078l3.593 7.446 3.538-7.446z"/>
        </g>
        <path d="M116 35V25h3.696c1.28 0 2.25.232 2.913.697.662.465.992 1.146.992 2.043 0 .49-.132.922-.398 1.295-.266.373-.635.647-1.109.82.541.129.968.388 1.28.777.31.39.467.865.467 1.428 0 .962-.324 1.69-.971 2.185-.648.494-1.57.746-2.769.755H116zm2.174-4.354v2.699h1.862c.512 0 .912-.116 1.2-.347.287-.231.43-.55.43-.958 0-.916-.5-1.38-1.5-1.394h-1.992zm0-1.456h1.609c1.096-.019 1.645-.433 1.645-1.244 0-.453-.14-.78-.417-.978-.278-.2-.716-.299-1.315-.299h-1.522v2.52zm13.645 1.476h-4.174v2.679h4.898V35h-7.072V25h7.058v1.669h-4.884v2.383h4.174v1.614zm9.942-3.997h-3.232V35h-2.174v-8.331h-3.188V25h8.594v1.669zm7.196 6.27h-3.812L144.42 35h-2.311l3.927-10h2.015L152 35h-2.312l-.731-2.06zm-3.225-1.668h2.638l-1.327-3.744-1.311 3.744z"/>
    </g>
</svg>
