<svg xmlns="http://www.w3.org/2000/svg" height="69" viewBox="0 0 216 69">
    <path fill="#fff" fill-rule="evenodd" d="M0 11.69V9.397C0 6.984.635 5.1 1.907 3.746c1.27-1.354 3.03-2.032 5.276-2.032s4.048.678 5.406 2.032c.958.955 1.437 2.388 1.437 4.297H10.63c0-2.066-1.106-3.099-3.317-3.099-.662 0-1.223.126-1.685.378-.46.252-.805.543-1.03.872-.228.33-.402.817-.524 1.459a11.392 11.392 0 0 0-.209 1.615 45.91 45.91 0 0 0-.025 1.745c0 .729.003 1.22.012 1.47.009.254.035.662.079 1.225.043.565.113.968.208 1.212.096.242.236.556.419.937.183.382.413.651.692.807.714.452 1.523.678 2.429.678 1.515 0 2.585-.642 3.212-1.927v-1.251H8.645v-3.02H14v5.599c-.54 1.268-1.394 2.223-2.56 2.864-1.167.644-2.49.964-3.97.964-2.63 0-4.532-.733-5.707-2.2C.587 16.903 0 14.675 0 11.688zm21.884 7.999l-3.506.025V.857h3.506zm12.431-6.195v-1.353c0-1.283-.182-2.264-.548-2.94-.366-.676-1.127-1.015-2.284-1.015-1.871 0-2.806 1.284-2.806 3.851v1.353c0 2.757.935 4.137 2.806 4.137 1.208 0 1.999-.46 2.373-1.38.306-.728.46-1.612.46-2.653m3.317-.78c0 3.21-.597 5.359-1.787 6.452-1.003.936-2.458 1.405-4.363 1.405-2.432 0-4.074-.73-4.924-2.185-.8-1.336-1.2-3.227-1.2-5.672 0-2.29.4-4.085 1.2-5.386.884-1.458 2.496-2.185 4.835-2.185s3.963.636 4.873 1.911c.91 1.275 1.366 3.161 1.366 5.66m7.747 4.196h1.688c1.9 0 2.85-1.462 2.85-4.384 0-1.485-.145-2.52-.435-3.104-.29-.585-.92-.877-1.887-.877l-3.088 1.578v5.634c0 .668.29 1.052.871 1.153m2.692 2.804l-2.982-.025c-1.32 0-2.319-.367-2.996-1.102-.678-.735-1.016-1.611-1.016-2.63V.858h3.431v6.311l4.09-1.803c1.566 0 2.72.4 3.458 1.202.651.717 1.056 1.878 1.214 3.48.053.668.08 1.496.08 2.48 0 4.791-1.76 7.187-5.28 7.187M64.76 15V8.277h-2.657c-.985 0-1.67.35-2.055 1.053-.386.702-.577 1.752-.577 3.147 0 1.397.183 2.379.55 2.948.367.568 1.06.852 2.082.852l2.658-1.279zm3.492 4.563h-2.336l-1.075-1.73-3.733 1.881c-2.076 0-3.473-.702-4.189-2.107a7.423 7.423 0 0 1-.738-2.22 14.887 14.887 0 0 1-.201-2.483c0-.86.009-1.495.026-1.905.018-.41.063-.886.134-1.43.072-.543.175-.999.31-1.367.133-.367.326-.748.577-1.14.25-.393.555-.707.913-.942.806-.517 1.853-.776 3.142-.776h3.679l3.491-.201v14.42zm7.858.126l-3.506.025V.857h3.507zm21.537-5.827c.095-.683.143-1.749.143-3.198 0-1.45-.048-2.499-.143-3.147-.096-.65-.31-1.168-.639-1.556-.626-.74-1.53-1.112-2.712-1.112h-3.258v9.961c0 .674.235 1.137.704 1.39.47.253 1.307.38 2.515.38 1.208 0 2.125-.371 2.751-1.113.33-.387.543-.923.639-1.605m3.767-3.223l.026 1.946c-.07 1.23-.226 2.267-.47 3.11-.243.843-.721 1.61-1.433 2.3-1.182 1.147-2.903 1.72-5.162 1.72-2.66 0-4.484-.342-5.475-1.024-.99-.683-1.486-1.917-1.486-3.704V1.714h7.222c2.085 0 3.719.573 4.9 1.72a5.6 5.6 0 0 1 1.695 3.387c.122.944.183 2.216.183 3.818m4.61 9.932h3.019V6.231h-3.02v14.34zM107.557 0c.727 0 1.2.126 1.416.378.217.252.325.783.325 1.59 0 .809-.112 1.34-.336 1.59-.225.254-.697.38-1.417.38-.72 0-1.192-.13-1.417-.392-.224-.26-.336-.791-.336-1.59 0-.8.112-1.326.336-1.578.225-.252.7-.378 1.429-.378zm13.998 13.824V8.307h-2.658c-1.003 0-1.692.32-2.068.962-.376.64-.564 1.535-.564 2.683 0 1.147.192 1.96.578 2.443.384.48 1.069.72 2.054.72l2.658-1.29zm0-8.478l3.491-.203v13.896c0 1.603-.479 2.83-1.436 3.683-.958.852-2.377 1.278-4.257 1.278-1.45 0-2.721-.27-3.813-.81a3.2 3.2 0 0 1-1.37-1.214c-.34-.54-.51-1.182-.51-1.923l3.25-.154c0 .473.178.81.537 1.013.357.203.97.304 1.839.304.868 0 1.459-.203 1.772-.607.314-.406.47-.987.47-1.747l.135-2.177-3.76 1.899c-2.059 0-3.447-.658-4.162-1.975-.645-1.164-.967-2.59-.967-4.278 0-2.008.16-3.425.483-4.252.34-.911.823-1.57 1.45-1.974.806-.506 1.862-.76 3.17-.76h3.678zm8.075 15.225h3.02V6.231h-3.02v14.34zM131.164 0c.728 0 1.2.126 1.417.378.216.252.325.783.325 1.59 0 .809-.112 1.34-.336 1.59-.225.254-.697.38-1.417.38-.72 0-1.193-.13-1.417-.392-.225-.26-.337-.791-.337-1.59 0-.8.112-1.326.337-1.578.224-.252.7-.378 1.428-.378zm13.983 20.571h-2.227c-1.357 0-2.387-.38-3.093-1.142-.705-.762-1.058-1.672-1.058-2.728V8.909h-1.512V6.338h1.512v-2.91h3.574v2.91h2.529v2.571h-2.53v7.584c0 .815.413 1.221 1.237 1.221h1.568v2.857zM155.65 15V8.277h-2.658c-.985 0-1.67.35-2.055 1.053-.385.702-.577 1.752-.577 3.147 0 1.397.183 2.379.55 2.948.367.568 1.061.852 2.082.852l2.658-1.279zm3.491 4.563h-2.336l-1.074-1.73-3.733 1.881c-2.077 0-3.473-.702-4.19-2.107a7.435 7.435 0 0 1-.738-2.22 14.887 14.887 0 0 1-.201-2.483c0-.86.009-1.495.026-1.905.018-.41.063-.886.135-1.43.07-.543.174-.999.309-1.367a5.91 5.91 0 0 1 .577-1.14c.25-.393.555-.707.913-.942.806-.517 1.853-.776 3.142-.776h3.679l3.491-.201v14.42zm7.859.126l-3.506.025V.857H167zM22.987 69h-11.1c-4.19 0-7.219-.784-9.085-2.35C.933 65.081 0 62.527 0 58.988V33h7.279v25.989c0 1.415.33 2.394.994 2.933.663.539 1.867.808 3.613.808h11.101V69zm9.685 0h7.073V33h-7.073zm38.176-10.72c0-1.617-.3-2.838-.903-3.665-.603-.826-1.682-1.238-3.24-1.238h-8.498v5.662c0 1.383.362 2.344 1.089 2.883.725.538 1.92.808 3.585.808h3.824c2.762 0 4.143-1.482 4.143-4.45zm-4.621-11.224c2.726 0 4.09-1.297 4.09-3.893 0-2.595-1.364-3.894-4.09-3.894h-8.02v7.787h8.02zM78.23 58.635c0 3.337-.947 5.9-2.841 7.686C73.495 68.107 70.848 69 67.449 69h-5.1c-4.178 0-7.143-.69-8.897-2.073-1.752-1.382-2.628-3.775-2.628-7.18V33H66.81c3.612 0 6.33.86 8.154 2.578 1.823 1.719 2.735 4.146 2.735 7.281 0 1.82-.487 3.372-1.46 4.652-.975 1.281-2.045 2.191-3.214 2.73 3.47 1.551 5.205 4.349 5.205 8.394zm26.874-10.391c.997-1.028 1.496-2.308 1.496-3.842 0-1.534-.482-2.773-1.444-3.717-.963-.943-2.248-1.415-3.858-1.415h-3.621c-2.17 0-3.255 1.061-3.255 3.185v7.331h6.876c1.54 0 2.809-.513 3.806-1.542zM115.418 69h-8.45L99.67 55.652h-5.249V69h-7.296V40.736c0-2.697.647-4.66 1.942-5.89 1.295-1.23 3.465-1.846 6.51-1.846h6.194c3.708 0 6.657 1.087 8.844 3.261 2.187 2.175 3.281 4.93 3.281 8.267 0 2.427-.656 4.525-1.969 6.295-1.312 1.77-2.931 2.992-4.855 3.666L115.418 69zm24.849-12.135l-4.397-14.258-4.607 14.258h9.004zM151.627 69h-7.59l-2.095-6.219h-12.511L127.389 69h-7.59l11.935-32.966c.524-1.146 1.107-1.938 1.753-2.377.646-.438 1.44-.657 2.383-.657.942 0 1.7.202 2.277.607.576.403 1.09 1.213 1.544 2.427L151.627 69zm22.371-20.756c.998-1.028 1.497-2.308 1.497-3.842 0-1.534-.482-2.773-1.444-3.717-.963-.943-2.249-1.415-3.858-1.415h-3.622c-2.17 0-3.254 1.061-3.254 3.185v7.331h6.876c1.54 0 2.808-.513 3.805-1.542zM184.312 69h-8.45l-7.296-13.348h-5.249V69h-7.297V40.736c0-2.697.648-4.66 1.943-5.89 1.294-1.23 3.464-1.846 6.508-1.846h6.195c3.708 0 6.656 1.087 8.844 3.261 2.187 2.175 3.28 4.93 3.28 8.267 0 2.427-.656 4.525-1.968 6.295-1.312 1.77-2.932 2.992-4.856 3.666L184.312 69zM216 33l-11.365 21.236V69h-7.33V54.236L185.94 33h8.02l7.063 14.511L207.98 33z"/>
</svg>
