<?xml version="1.0" ?><svg id="Layer_1" style="enable-background:new 0 0 512 512;" version="1.1" viewBox="0 0 512 512" xml:space="preserve" xmlns="http://www.w3.org/2000/svg" xmlns:xlink="http://www.w3.org/1999/xlink"><style type="text/css">
	.st0{fill:#D03733;}
	.st1{fill:#F2DD31;}
	.st2{fill:#2E6D42;}
	.st3{fill:#4DA2D6;}
	.st4{fill:#010101;}
</style><g id="XMLID_1_"><rect class="st0" height="298.7" id="XMLID_21_" width="512" y="106.7"/><rect class="st1" height="199.1" id="XMLID_20_" width="512" y="106.7"/><rect class="st2" height="99.6" id="XMLID_19_" width="512" y="106.7"/><path class="st3" d="M330.7,256c0,41.2-33.4,74.7-74.7,74.7c-41.2,0-74.7-33.4-74.7-74.7   c0-41.2,33.4-74.7,74.7-74.7C297.2,181.3,330.7,214.8,330.7,256L330.7,256z" id="XMLID_18_"/><path class="st1" d="M199.2,237.3h43.4l9.8-30.2l2.6,8.1l-14.3,43.9l-4.2-3.1l4.4-13.7H206L199.2,237.3z M220.9,304.1l13.4-41.3   l-25.7-18.7h8.5l37.3,27.1l-4.2,3.1l-11.6-8.5l-10.8,33.2L220.9,304.1L220.9,304.1z M291.1,304.1L256,278.6l-25.7,18.7l2.6-8.1   l37.3-27.1l1.6,5l-11.6,8.5l28.3,20.5L291.1,304.1L291.1,304.1z M312.8,237.3l-35.1,25.5l9.8,30.2l-6.9-5l-14.3-43.9h5.2l4.4,13.7   l28.3-20.5H312.8L312.8,237.3z M256,196l13.4,41.3h31.8l-6.9,5h-46.2l1.6-5h14.4l-10.8-33.2L256,196z"/><path class="st4" d="M256,283.4v32.4V283.4z M230,264.5l-30.8,10L230,264.5z M239.9,233.9l-19-26.2L239.9,233.9z M272.1,233.9   l19-26.2L272.1,233.9z M282,264.5l30.8,10L282,264.5z"/><g><path class="st1" d="M257.3,315.7h-2.5v-32.4h2.5V315.7L257.3,315.7z M312.4,275.6l-30.8-10l0.8-2.4l30.8,10L312.4,275.6    L312.4,275.6z M199.6,275.6l-0.8-2.4l30.8-10l0.8,2.4L199.6,275.6L199.6,275.6z M273.1,234.6l-2-1.5l19-26.2l2,1.5L273.1,234.6    L273.1,234.6z M238.9,234.6l-19-26.2l2-1.5l19,26.2L238.9,234.6L238.9,234.6z"/></g></g></svg>